<svg width="64" height="64" viewBox="0 0 64 64" fill="none" xmlns="http://www.w3.org/2000/svg">
<g clip-path="url(#clip0_3621_5641)">
<path d="M4.34375 11.0141L5.29738 12.7144L20.7388 4.02825L19.7851 2.32812L4.34375 11.0141Z" fill="#954C35"/>
<path d="M21.5966 2.32812L20.6431 4.02825L36.7988 13.0615L37.7524 11.3614L21.5966 2.32812Z" fill="#954C35"/>
<path d="M63.2485 49.7129V51.9047C63.2485 53.6501 62.877 55.3754 62.1588 56.9662C61.4406 58.5569 60.3921 59.9766 59.083 61.1309L58.9662 61.2329C57.4728 62.5492 55.5506 63.2756 53.56 63.2759H45.3345C44.3169 63.2757 43.3083 63.0858 42.3603 62.7159C41.4124 62.3454 40.5419 61.8014 39.7935 61.1117C38.544 59.9597 37.5467 58.5613 36.8646 57.0046C36.1824 55.448 35.8302 53.7669 35.8301 52.0674V49.646C35.8301 42.208 39.6327 37.0791 45.9101 33.0889L46.0312 33.0122V30.0556L43.8965 18.0264C43.8032 17.581 44.1435 17.1621 44.5996 17.1621H54.3476C54.8022 17.1621 55.1426 17.5801 55.0507 18.0254L52.9395 30.0522V33.0122L53.0815 33.101C59.4091 37.081 63.2485 42.2382 63.2485 49.7129Z" fill="#20B7A1"/>
<path d="M63.2485 49.7129V51.9047C63.2485 53.6501 62.8771 55.3754 62.1589 56.9662C61.4407 58.5569 60.3921 59.9766 59.083 61.1309L58.9662 61.2329C57.4729 62.5492 55.5507 63.2756 53.56 63.2759H48.6509C47.6333 63.2757 46.6247 63.0858 45.6767 62.7159C44.7288 62.3454 43.8583 61.8014 43.1099 61.1117C41.8603 59.9598 40.863 58.5614 40.1808 57.0047C39.4987 55.448 39.1465 53.7669 39.1465 52.0674V49.646C39.1465 42.208 42.9487 37.0791 49.2261 33.0889L49.3476 33.0122V30.0556L47.2125 18.0264C47.1197 17.581 47.46 17.1621 47.9156 17.1621H54.3477C54.8024 17.1621 55.1427 17.5801 55.0504 18.0254L52.9396 30.0522V33.0122L53.0816 33.101C59.4092 37.081 63.2486 42.2382 63.2486 49.7129H63.2485Z" fill="#24D3B5"/>
<path d="M46.0312 30.0605H52.94V33.0137H46.0312V30.0605Z" fill="#FFDE91"/>
<path d="M46.0312 30.0605H49.3471V33.0137H46.0312V30.0605Z" fill="#EDC472"/>
<path d="M40.3358 59.5633C38.1058 61.992 35.2045 63.4329 32.1766 63.863C28.2523 64.4222 24.1175 63.281 20.9701 60.3909C15.393 55.2728 15.0223 46.6014 20.1425 41.0252C23.3182 37.5648 27.8621 36.1097 32.1853 36.7254C34.83 37.1023 37.3925 38.2537 39.5081 40.1975C45.0853 45.3163 45.4555 53.9875 40.3358 59.5633Z" fill="#FFDE91"/>
<path d="M40.3362 59.5625C38.1062 61.9912 35.2048 63.4321 32.1769 63.8622C29.5324 63.4854 26.9699 62.334 24.8542 60.3901C19.277 55.272 18.9069 46.6006 24.0265 41.0244C26.2565 38.5956 29.1584 37.1547 32.1857 36.7246C34.8303 37.1015 37.3928 38.2529 39.5084 40.1967C45.0857 45.3155 45.4558 53.9867 40.3362 59.5625Z" fill="#FFE89C"/>
<path d="M39.894 52.1262C39.4365 54.5481 38.0942 56.6949 36.1177 58.1712C34.9551 59.0408 33.6131 59.6401 32.1895 59.9254C28.5825 60.6492 24.7085 59.3107 22.3671 56.1726C20.7256 53.9728 20.0776 51.1647 20.5879 48.4669C21.0454 46.0437 22.3877 43.8967 24.3642 42.4216C26.4677 40.8522 29.0567 40.1959 31.6542 40.5724C31.8271 40.5974 32 40.6272 32.1699 40.6608C34.5547 41.1364 36.6519 42.4567 38.1152 44.4201C39.7564 46.6188 40.4047 49.4284 39.894 52.1262Z" fill="#DBAD5C"/>
<path d="M39.8942 52.1255C39.4367 54.5474 38.0944 56.6943 36.1179 58.1705C34.9553 59.0402 33.6133 59.6395 32.1897 59.9248C29.8937 59.4648 27.7536 58.1914 26.2472 56.1719C24.6062 53.9722 23.9577 51.164 24.4685 48.4663C24.927 46.043 26.2683 43.896 28.2458 42.4209C29.4298 41.5385 30.7653 40.9448 32.1701 40.6602C34.555 41.1358 36.6521 42.456 38.1154 44.4194C39.7566 46.6182 40.405 49.4278 39.8942 52.1255Z" fill="#EDC472"/>
<path d="M33.6631 52.9195C33.6631 48.5786 28.5415 49.8228 28.5415 47.4239C28.5415 46.247 29.5868 46 30.4638 46C31.311 46 31.7725 46.2378 32.1098 46.4116C32.3046 46.5123 32.459 46.5913 32.6278 46.5913C33.1308 46.5913 33.3828 46.0074 33.3828 45.6806C33.3828 44.9711 32.2466 44.6163 31.2138 44.5015V42.7656C31.2138 42.5072 31.1111 42.2593 30.9283 42.0765C30.7455 41.8938 30.4977 41.7911 30.2392 41.791C29.9807 41.7911 29.7329 41.8938 29.5501 42.0765C29.3674 42.2593 29.2647 42.5072 29.2646 42.7656V44.583C27.729 44.9301 26.8442 45.9843 26.8442 47.5484C26.8442 51.4688 31.9658 50.1186 31.9658 53.0434C31.9658 54.5538 30.7323 54.7788 29.9971 54.7788C28.8555 54.7788 28.3403 54.2734 27.9643 53.9038C27.7533 53.6968 27.5712 53.518 27.335 53.518C26.92 53.518 26.564 54.019 26.564 54.4293C26.564 55.122 27.5937 56.0864 29.2646 56.3271V57.7149C29.2646 57.8429 29.2898 57.9696 29.3387 58.0879C29.3877 58.2061 29.4595 58.3136 29.55 58.4041C29.6405 58.4946 29.748 58.5664 29.8662 58.6154C29.9845 58.6643 30.1112 58.6895 30.2392 58.6895C30.4977 58.6894 30.7455 58.5867 30.9283 58.404C31.1111 58.2212 31.2138 57.9734 31.2138 57.7149V56.2529C32.7676 55.8745 33.6631 54.6876 33.6631 52.9195Z" fill="#FFE89C"/>
<path d="M23.9288 59.5633C21.6988 61.992 18.7969 63.4329 15.7695 63.863C11.8453 64.4222 7.71003 63.281 4.56303 60.3909C-1.01459 55.2728 -1.38472 46.6014 3.73541 41.0252C6.91116 37.5648 11.4552 36.1097 15.7784 36.7254C18.4229 37.1023 20.9854 38.2537 23.1012 40.1975C28.6783 45.3163 29.0485 53.9875 23.9288 59.5633Z" fill="#FFE89C"/>
<path d="M23.9286 59.5625C21.6986 61.9912 18.7968 63.4321 15.7694 63.8622C13.1249 63.4854 10.5624 62.334 8.44663 60.3901C2.8695 55.272 2.49888 46.6006 7.61913 41.0244C9.849 38.5956 12.7504 37.1547 15.7783 36.7246C18.4228 37.1015 20.9853 38.2529 23.101 40.1967C28.6781 45.3155 29.0484 53.9867 23.9286 59.5625Z" fill="#FCF2B6"/>
<path d="M23.4869 52.1262C23.0294 54.5481 21.687 56.6949 19.7105 58.1712C18.5479 59.0408 17.2059 59.6401 15.7823 59.9254C12.1753 60.6492 8.30127 59.3107 5.96002 56.1726C4.31839 53.9728 3.67039 51.1647 4.18064 48.4669C4.63814 46.0437 5.98052 43.8967 7.95702 42.4216C10.0605 40.8522 12.6495 40.1959 15.247 40.5724C15.4199 40.5974 15.5928 40.6272 15.7628 40.6608C18.1475 41.1364 20.2446 42.4567 21.708 44.4201C23.3491 46.6188 23.9975 49.4284 23.4868 52.1262H23.4869Z" fill="#DBAD5C"/>
<path d="M23.4871 52.1255C23.0296 54.5474 21.6872 56.6943 19.7107 58.1705C18.5481 59.0402 17.2061 59.6395 15.7825 59.9248C13.4866 59.4648 11.3465 58.1914 9.83997 56.1719C8.19897 53.9722 7.55047 51.164 8.06122 48.4663C8.51972 46.043 9.8611 43.896 11.8386 42.4209C13.0222 41.5385 14.3581 40.9448 15.763 40.6602C18.1472 41.1358 20.2449 42.456 21.7082 44.4194C23.3494 46.6182 23.9977 49.4278 23.487 52.1255H23.4871Z" fill="#EDC472"/>
<path d="M17.2559 52.9195C17.2559 48.5786 12.1342 49.8228 12.1342 47.4239C12.1342 46.247 13.1797 46 14.0567 46C14.9037 46 15.3652 46.2378 15.7026 46.4116C15.8975 46.5123 16.0517 46.5913 16.2201 46.5913C16.7231 46.5913 16.9756 46.0074 16.9756 45.6806C16.9756 44.9711 15.8394 44.6163 14.8066 44.5015V42.7656C14.8065 42.5072 14.7038 42.2593 14.5211 42.0765C14.3383 41.8938 14.0905 41.7911 13.832 41.791C13.704 41.791 13.5773 41.8162 13.459 41.8652C13.3407 41.9141 13.2333 41.9859 13.1428 42.0764C13.0523 42.1669 12.9805 42.2744 12.9315 42.3926C12.8825 42.5109 12.8573 42.6376 12.8574 42.7656V44.583C11.3217 44.9301 10.437 45.9843 10.437 47.5484C10.437 51.4688 15.5586 50.1186 15.5586 53.0434C15.5586 54.5538 14.3252 54.7788 13.5899 54.7788C12.4482 54.7788 11.9331 54.2734 11.5571 53.9038C11.3462 53.6968 11.1641 53.518 10.9277 53.518C10.5122 53.518 10.1567 54.019 10.1567 54.4293C10.1567 55.122 11.186 56.0864 12.8574 56.3271V57.7149C12.8574 57.9733 12.96 58.2211 13.1428 58.4039C13.3255 58.5866 13.5733 58.6893 13.8317 58.6893C14.0902 58.6893 14.338 58.5866 14.5207 58.4039C14.7035 58.2211 14.8061 57.9733 14.8061 57.7149V56.2529C16.3604 55.8745 17.2559 54.6876 17.2559 52.9195Z" fill="#FFE89C"/>
<path d="M40.8345 11.6977V31.0967C40.8345 32.0664 40.0497 32.8511 39.0801 32.8511H2.39695C1.4287 32.8511 0.642578 32.0664 0.642578 31.0967V11.6977C0.642578 10.73 1.4287 9.94336 2.39695 9.94336H39.08C40.0496 9.94336 40.8343 10.73 40.8343 11.6977H40.8345Z" fill="#C0694E"/>
<path d="M40.8345 11.6977V28.1949H5.94725C4.979 28.1949 4.19287 27.4096 4.19287 26.4405V9.94336H39.0801C40.0497 9.94336 40.8345 10.73 40.8345 11.6977Z" fill="#C97E67"/>
<path d="M10.0815 24.5451H6.24565V15.4747C6.24565 14.8185 5.11227 14.7125 4.51665 14.9952C4.30715 15.0952 4.20215 15.255 4.20215 15.4747V25.6925C4.20215 25.902 4.29402 26.0616 4.47752 26.1715C4.84477 26.3922 4.61815 26.337 10.081 26.337C10.8838 26.337 10.9141 24.545 10.0815 24.545V24.5451ZM17.7998 15.6632C16.23 14.34 11.496 14.1564 11.496 18.4454C11.496 23.1031 11.4131 23.6212 11.7793 24.5055C12.1421 25.3815 12.7915 25.9615 13.7203 26.2345C15.0381 26.6217 17.7046 26.6334 18.5855 24.5055C18.9503 23.6242 18.8686 23.1154 18.8686 18.4455C18.8686 17.3849 18.6143 16.3512 17.7999 15.6632H17.7998ZM16.8253 22.8316C16.8253 23.4606 16.6783 23.9191 16.3848 24.2071C15.7871 24.7946 14.5298 24.7839 13.9644 24.2071C13.6811 23.9191 13.5395 23.4606 13.5395 22.8316C13.5395 18.1549 13.415 17.63 13.9644 17.0704C14.5269 16.4972 15.7818 16.4781 16.3848 17.0704C16.9546 17.6305 16.8253 18.1574 16.8253 22.8316ZM22.8765 15.4435C19.5778 26.195 19.6803 25.5137 19.937 25.8336C20.3599 26.3634 21.6006 26.5964 21.792 25.9284L22.3891 23.8375H25.9893C26.6348 26.0982 26.5889 26.1169 26.8301 26.2427C27.2378 26.4552 28.0386 26.3034 28.4414 25.8262C28.6993 25.5201 28.8228 26.2672 25.502 15.4435C25.2168 14.5085 23.1558 14.524 22.8765 15.4435ZM22.814 22.234L24.1811 17.4084L25.5489 22.234H22.814ZM35.2319 15.4747V21.7941C31.669 14.9074 31.9081 14.8459 30.6734 14.8459C30.2851 14.8459 29.6519 14.9786 29.6519 15.4904V25.6925C29.6519 26.545 31.6954 26.5504 31.6954 25.6925V19.3731C35.3471 26.2012 35.1431 25.9909 35.586 26.1954C35.9893 26.3815 36.5156 26.3956 36.9535 26.1716C37.168 26.0616 37.2759 25.902 37.2759 25.6925V15.4747C37.2759 14.6407 35.2319 14.6241 35.2319 15.4747Z" fill="#FFDE91"/>
<path d="M23.078 2.33938C23.078 3.63138 22.0307 4.67875 20.7387 4.67875C19.4467 4.67875 18.3999 3.63125 18.3999 2.33938C18.3999 1.04737 19.4465 0 20.7387 0C22.0308 0 23.078 1.04737 23.078 2.33938Z" fill="#EDC472"/>
</g>
<defs>
<clipPath id="clip0_3621_5641">
<rect width="64" height="64" fill="white"/>
</clipPath>
</defs>
</svg>
