<svg width="64" height="64" viewBox="0 0 64 64" fill="none" xmlns="http://www.w3.org/2000/svg">
<g clip-path="url(#clip0_3621_7044)">
<path fill-rule="evenodd" clip-rule="evenodd" d="M26.6626 6.53711H57.5376V42.2746H26.6626V6.53711Z" fill="#E6E6E6"/>
<path fill-rule="evenodd" clip-rule="evenodd" d="M57.5376 13.4492V42.2742H26.6626V34.5992C38.2876 30.6492 48.5876 23.5992 57.5376 13.4492Z" fill="#D0D0CF"/>
<path fill-rule="evenodd" clip-rule="evenodd" d="M28.2373 51.7493C30.3873 51.5618 32.0623 51.2993 32.5998 50.9743L42.5748 44.7618C46.1498 42.5368 50.0623 44.6493 46.8623 47.3993C44.6748 49.2618 40.3373 53.1743 36.2373 56.5993L28.9248 57.4743L28.2373 51.7493Z" fill="#FAD1A2"/>
<path fill-rule="evenodd" clip-rule="evenodd" d="M30.7876 57.2505C32.8501 55.713 35.3126 53.663 37.7001 51.613C37.7751 51.5505 37.8376 51.5005 37.9001 51.438C40.4876 49.213 50.2876 44.5255 46.8626 47.4005C44.6626 49.238 40.3001 53.1755 36.2126 56.6005L30.7876 57.2505Z" fill="#E2BB92"/>
<path fill-rule="evenodd" clip-rule="evenodd" d="M58.55 0.625L62.8125 2.975C58.0875 11.525 55.5125 18.15 51.2 25.9625C50.925 25.8125 50.6375 25.6625 50.3625 25.5C49.7375 26.625 45.275 30.6375 44.9375 30.45C44.5875 30.25 45.475 24.2875 46.1 23.15C45.825 23 45.55 22.8375 45.2625 22.6875C49.5875 14.875 53.825 9.175 58.55 0.625Z" fill="#ED2024"/>
<path fill-rule="evenodd" clip-rule="evenodd" d="M14.4751 26.1005C16.6501 23.6755 19.0751 21.3005 21.3376 18.363L15.0876 10.388C13.2501 7.45047 19.4001 6.02547 25.3501 6.10047C31.3001 6.02547 37.4501 7.45047 35.6126 10.388L29.3501 18.363C31.6126 21.3005 34.0251 23.6755 36.2126 26.1005C67.8126 61.363 -17.1249 61.363 14.4751 26.1005Z" fill="#208380"/>
<path fill-rule="evenodd" clip-rule="evenodd" d="M23.5876 17.4871L20.5751 7.69961C19.0001 3.64961 30.8126 3.64961 29.2376 7.69961L26.3751 17.4871H23.5876Z" fill="#208380"/>
<path fill-rule="evenodd" clip-rule="evenodd" d="M20.6248 15.7873C24.7748 16.8373 26.8623 16.7123 30.0623 15.7873C33.2248 14.8748 33.2623 20.6623 30.0623 19.9248C26.9248 19.1998 23.9748 19.1498 20.6248 19.9248C17.4248 20.6623 17.4373 14.9873 20.6248 15.7873Z" fill="#E8DAB2"/>
<path fill-rule="evenodd" clip-rule="evenodd" d="M25.35 45.3367C19.8375 45.3367 15.375 40.8742 15.375 35.3617C15.375 29.8492 19.8375 25.3867 25.35 25.3867C30.8625 25.3867 35.325 29.8492 35.325 35.3617C35.325 40.8742 30.8625 45.3367 25.35 45.3367Z" fill="#FDB614"/>
<path fill-rule="evenodd" clip-rule="evenodd" d="M25.3499 27.9746C29.4374 27.9746 32.7499 31.2871 32.7499 35.3621C32.7499 39.4496 29.4374 42.7621 25.3499 42.7621C21.2624 42.7621 17.9624 39.4496 17.9624 35.3621C17.9499 31.2746 21.2624 27.9746 25.3499 27.9746Z" fill="#E6A624"/>
<path fill-rule="evenodd" clip-rule="evenodd" d="M21.7122 30.0379C21.9497 29.8754 22.1997 29.7254 22.4497 29.5879C23.4747 29.0379 24.6622 28.7379 25.8997 28.7379C26.6122 28.7379 27.3122 28.8379 27.9622 29.0254C28.5747 29.2004 29.1497 29.4629 29.6872 29.7754C29.9247 29.9254 30.1622 30.0754 30.3747 30.2379C30.7997 30.5629 31.1997 30.9379 31.5497 31.3504C31.2122 30.8254 30.8122 30.3379 30.3497 29.9254C30.2247 29.8129 30.0997 29.7129 29.9747 29.6004C29.3747 29.1129 28.7122 28.7254 27.9872 28.4504C27.1622 28.1254 26.2747 27.9629 25.3372 27.9629C24.3997 27.9629 23.5122 28.1379 22.6872 28.4504C21.9622 28.7254 21.2872 29.1129 20.6872 29.6004C20.5622 29.7004 20.4372 29.8129 20.3247 29.9254C19.8622 30.3504 19.4622 30.8254 19.1247 31.3504C18.3747 32.5004 17.9497 33.8754 17.9497 35.3629C17.9497 37.1754 18.5997 38.8379 19.6872 40.1254C18.9372 38.9754 18.5122 37.6004 18.5122 36.1254C18.5247 33.6004 19.7872 31.3754 21.7122 30.0379Z" fill="#B9872C"/>
<path fill-rule="evenodd" clip-rule="evenodd" d="M8.7376 48.9493C9.4626 48.3368 10.1751 47.7118 10.8251 47.1118C12.9751 45.1368 14.4876 44.1118 16.1001 43.6243C18.0376 43.0493 19.7001 41.1493 22.4626 39.8368C29.3626 36.5368 31.4501 43.0243 26.1501 45.4243C22.2876 47.4618 19.1001 49.3243 19.1001 49.9743C19.1126 50.4743 36.0001 52.2493 38.0501 51.2868L48.7001 46.3118C52.5251 44.5243 56.1501 47.0993 52.6376 49.4368C48.2501 52.3493 35.8251 61.2618 31.9876 62.3118C26.5501 62.8243 13.3876 61.9368 8.4751 62.4993C8.5001 62.3993 8.5251 62.2993 8.5251 62.1993L8.7376 48.9493Z" fill="#FAD1A2"/>
<path fill-rule="evenodd" clip-rule="evenodd" d="M8.6751 52.9992C11.7626 57.3742 26.6501 58.7367 31.8626 58.2492C34.0001 57.6617 38.4251 55.6242 43.0376 52.5367L43.2626 52.3867C46.1001 50.4867 56.3876 46.9992 52.6376 49.4367C48.2251 52.3117 35.8251 61.2617 31.9876 62.3117C26.5501 62.8242 13.3876 61.9367 8.4751 62.4992C8.5001 62.3992 8.5251 62.2992 8.5251 62.1992L8.6751 52.9992Z" fill="#CCAA84"/>
<path fill-rule="evenodd" clip-rule="evenodd" d="M8.6749 53C7.6999 56.9625 5.6249 58.775 0.962402 59.8875L0.974902 62.2125C0.974902 62.325 0.987402 62.425 1.0124 62.5125C1.1624 63.025 1.6374 63.375 2.2124 63.375L7.3749 63.3375C7.9249 63.3375 8.3874 62.925 8.5249 62.4125C8.5624 59.275 8.6749 56.125 8.6749 53Z" fill="#5E5F5F"/>
<path d="M50.4001 34.4502V32.1252C49.7251 32.2252 48.7876 32.6377 48.7876 33.3127C48.7876 34.0502 49.5376 34.2877 50.4001 34.4502ZM51.4126 35.6252V37.9377C52.0876 37.8377 53.0251 37.4252 53.0251 36.7502C53.0251 36.0377 52.2751 35.7877 51.4126 35.6252ZM50.4001 30.4502C50.4001 29.7877 51.4001 29.7877 51.4001 30.4502V31.1252C52.6501 31.2627 54.0126 32.0377 54.0126 33.3127C54.0126 33.9752 53.0126 33.9752 53.0126 33.3127C53.0126 32.6377 52.0751 32.2252 51.4001 32.1252V34.6002C52.7626 34.8252 54.0126 35.1752 54.0126 36.7502C54.0126 38.0377 52.6501 38.8002 51.4001 38.9502V39.6252C51.4001 40.2877 50.4001 40.2877 50.4001 39.6252V38.9502C49.1501 38.8002 47.7876 38.0377 47.7876 36.7502C47.7876 36.0877 48.7876 36.0877 48.7876 36.7502C48.7876 37.4252 49.7251 37.8377 50.4001 37.9377V35.4627C49.0376 35.2377 47.7876 34.8877 47.7876 33.3127C47.7876 32.0377 49.1501 31.2627 50.4001 31.1252V30.4502ZM62.1251 3.17521L58.7501 1.31271C57.6626 3.26271 56.6126 5.06271 55.5626 6.77521C55.5501 6.80021 55.5376 6.81271 55.5251 6.83771C54.4626 8.57521 53.4251 10.2377 52.3876 11.8752L52.0251 12.4377C51.3126 13.5752 50.6001 14.7002 49.9001 15.8377C49.8876 15.8627 49.8751 15.8877 49.8626 15.9002C49.0751 17.1627 48.2876 18.4627 47.5001 19.8002C47.4876 19.8127 47.4751 19.8377 47.4626 19.8627C46.9501 20.7252 46.4501 21.6002 45.9376 22.5127C46.2626 22.6877 46.5876 22.8002 46.5876 23.1627C46.5876 23.3627 46.4751 23.4502 46.4126 23.6502L46.3751 23.7627C46.1251 24.5002 45.8376 25.9002 45.6251 27.2377L45.1626 30.0252C45.2001 30.0377 46.1001 29.1002 47.1876 28.1127C47.9501 27.4127 49.5626 25.8877 49.9001 25.2752C50.0376 25.0377 50.3376 24.9502 50.5751 25.0752L50.9751 25.3002C52.8626 21.8377 54.6001 18.2502 56.2626 14.7877C58.1626 10.8502 59.8126 7.40021 62.1251 3.17521ZM62.6251 6.11271C62.9501 5.53771 63.8251 6.01271 63.5001 6.60021L59.7751 13.3627C59.4501 13.9377 58.5751 13.4502 58.9001 12.8752L62.6251 6.11271ZM25.7001 17.0377C24.2126 17.0502 22.6126 16.8127 20.5001 16.2877C18.7626 15.8502 18.3626 17.9502 19.0376 18.9502C19.3126 19.3627 19.8001 19.6002 20.5126 19.4377C23.8501 18.6627 26.9001 18.6752 30.1751 19.4377C31.9626 19.8627 32.3126 17.6002 31.6001 16.6502C31.3251 16.2877 30.8626 16.0877 30.2001 16.2877C28.9876 16.6377 27.9251 16.8752 26.8501 16.9877C26.6251 17.0502 26.7501 17.0252 26.5376 17.0127C26.2751 17.0252 25.9876 17.0252 25.7001 17.0377ZM27.3626 15.9002C28.1751 15.7752 29.0001 15.5752 29.9251 15.3127C30.3876 15.1752 30.8001 15.1627 31.1626 15.2377L35.2001 10.1002C35.4751 9.71271 35.5251 9.23771 35.2751 8.83771C35.1251 8.61271 34.8751 8.38771 34.5501 8.18771C33.4001 7.46271 31.4876 7.06271 29.9001 6.85021C29.9126 7.16271 29.8626 7.51271 29.7126 7.87521L27.3626 15.9002ZM23.6126 15.8877C24.5501 16.0127 25.4126 16.0627 26.2751 16.0127L28.7501 7.60021C28.7626 7.57521 28.7626 7.55021 28.7751 7.52521C29.1251 6.62521 28.5251 5.98771 27.5376 5.60021C26.0376 5.02521 23.7626 5.02521 22.2626 5.60021C21.2876 5.98771 20.6876 6.61271 21.0376 7.51271C21.0376 7.52521 21.0501 7.53771 21.0501 7.55021L23.6126 15.8877ZM20.7501 15.3127C21.3876 15.4752 21.9626 15.6002 22.5126 15.7127L20.1001 7.87521C19.9751 7.55021 19.9251 7.25021 19.9126 6.97521C18.5626 7.20021 15.0501 7.98771 15.2626 9.50021C15.2876 9.67521 15.3626 9.87521 15.4876 10.0877L19.5376 15.2502C19.9001 15.1877 20.3001 15.2002 20.7501 15.3127ZM38.4251 20.0752C38.8876 20.5377 38.1876 21.2502 37.7251 20.7877C36.3251 19.4127 34.7126 18.5752 32.8251 18.7127C32.6376 19.3752 32.2251 19.9752 31.5876 20.2877C33.2626 22.2127 34.9001 23.8752 36.5876 25.7627C40.6001 30.2502 43.2376 34.7002 43.7876 38.8627H46.0501C46.7126 38.8627 46.7126 39.8627 46.0501 39.8627H43.8751C43.9126 40.5252 43.8876 41.1627 43.8126 41.7752H57.0501V15.5127C55.8501 18.0127 54.6626 20.4877 53.3376 23.0377H53.5376C54.2001 23.0377 54.2001 24.0377 53.5376 24.0377H52.8126C52.4376 24.7627 52.0376 25.4752 51.6376 26.2127C51.5126 26.4627 51.2001 26.5502 50.9626 26.4127L50.5251 26.1752C50.3376 26.4127 50.0876 26.7002 49.8001 27.0002H53.5501C54.2126 27.0002 54.2126 28.0127 53.5501 28.0127H48.8001C48.5001 28.3002 48.2001 28.5752 47.9001 28.8502C46.5251 30.0877 45.0876 31.1002 44.7126 30.9002C44.4001 30.7252 44.3876 29.4752 44.5501 28.0002H41.8126C41.1501 28.0002 41.1501 26.9877 41.8126 26.9877H44.6876C44.8501 25.9377 45.0626 24.8502 45.2876 24.0252H41.8126C41.1501 24.0252 41.1501 23.0252 41.8126 23.0252H44.9126C44.7751 22.8752 44.7376 22.6377 44.8501 22.4502C45.3001 21.6377 45.7501 20.8377 46.2001 20.0627H41.8126C41.1501 20.0627 41.1501 19.0627 41.8126 19.0627H46.7876C47.3876 18.0502 47.9751 17.0627 48.5751 16.1002H41.8126C41.1501 16.1002 41.1501 15.0877 41.8126 15.0877H49.2001C49.8126 14.1002 50.4376 13.1127 51.0626 12.1252H41.8251C41.1626 12.1252 41.1626 11.1252 41.8251 11.1252H51.7001C52.5376 9.78771 53.3876 8.43771 54.2501 7.03771H34.5501C36.0751 7.78771 37.0501 9.02521 36.0376 10.6377L32.0876 15.6877C32.3751 15.9377 32.5876 16.2627 32.7251 16.6252C34.4126 16.6377 35.6001 15.7002 36.0001 14.0377C36.1501 13.3877 37.1251 13.6252 36.9751 14.2627C36.5001 16.3002 35.0001 17.5627 32.9501 17.6252V17.7127C35.0501 17.6127 36.8751 18.5502 38.4251 20.0752ZM37.3501 35.3627C37.3501 34.7002 38.3501 34.7002 38.3501 35.3627C38.3501 41.2377 34.4251 46.3377 28.8501 47.9002C28.2126 48.0752 27.9376 47.1127 28.5751 46.9377C33.7376 45.4877 37.3501 40.7877 37.3501 35.3627ZM24.8501 34.7752V32.0502C24.0376 32.1502 22.9376 32.6377 22.9376 33.4377C22.9251 34.3127 23.8126 34.5877 24.8501 34.7752ZM10.1376 48.4002C9.82506 48.6752 9.52506 48.9377 9.23756 49.1752L9.02506 61.9502C11.6501 61.7252 15.9751 61.8127 20.3126 61.8877C24.7626 61.9752 29.2501 62.0627 31.8876 61.8127C34.9126 60.9502 43.4626 55.0877 48.9626 51.3127C50.3126 50.3877 51.4876 49.5877 52.3501 49.0127C53.6751 48.1377 54.0376 47.1002 52.7126 46.5002C51.8001 46.0877 50.3751 46.0627 48.8876 46.7627L38.2501 51.7502C37.8001 51.9627 36.8251 52.0627 35.5501 52.0752C32.5251 52.1127 28.3001 51.7627 25.3751 51.4627C22.6251 51.1752 20.2251 50.8127 19.1876 50.4752C18.9626 50.5252 18.7376 50.4127 18.6376 50.2002C18.3376 49.5752 19.4876 48.6752 20.9001 47.7877L22.1126 47.0627C23.2126 46.4252 24.5126 45.7127 25.8876 44.9877C25.9001 44.9752 25.9126 44.9752 25.9251 44.9627C27.6251 44.1877 28.4876 42.9752 28.6001 41.8752C28.6876 41.0502 28.3501 40.3002 27.6376 39.8502C27.3876 39.6877 27.0876 39.5752 26.7376 39.5002C26.6251 39.5127 26.5126 39.5002 26.4126 39.4502C26.1126 39.4127 25.8001 39.4127 25.4501 39.4377C25.2001 39.4752 24.8751 39.5002 24.5876 39.5877C24.5501 39.6002 24.5126 39.6127 24.4751 39.6127C23.9251 39.7502 23.3126 39.9752 22.6626 40.2877C21.4001 40.8877 20.3626 41.6252 19.4126 42.3002C18.3126 43.0877 17.3251 43.7752 16.2251 44.1127C14.4001 44.6627 12.7501 46.0002 11.1501 47.4877L10.1376 48.4002ZM35.7876 51.0627C36.8126 51.0377 37.5376 50.9752 37.8376 50.8377L47.0126 46.5502C47.4251 46.0752 47.5876 45.6752 47.5501 45.3502C47.4876 44.8502 46.9626 44.5627 46.4751 44.4377C45.5251 44.1877 44.1751 44.3627 42.8501 45.1877L42.7001 45.2752C42.1001 46.4002 41.2751 47.4002 40.3001 48.2752C39.0251 49.4127 37.4876 50.3377 35.7876 51.0627ZM25.8501 38.4127C26.1376 38.4127 26.4126 38.4252 26.6626 38.4627C26.9876 38.3377 27.2626 38.1502 27.4626 37.9502C27.6501 37.7502 27.7626 37.5252 27.7626 37.2877C27.7626 36.4127 26.8751 36.1377 25.8501 35.9502V38.4127ZM18.3876 41.8002C19.7876 40.8127 21.1751 39.7752 22.9876 39.0502C21.7876 38.2377 21.6126 36.7877 22.4251 36.7877C22.7001 36.7877 22.9251 37.0127 22.9251 37.2877C22.9251 37.5627 23.0626 37.8252 23.3126 38.0377C23.5876 38.2877 23.9626 38.4752 24.4251 38.6002C24.5626 38.5627 24.7001 38.5377 24.8376 38.5127V35.7877C23.3126 35.5377 21.9126 35.1752 21.9126 33.4377C21.9126 32.0252 23.4376 31.1752 24.8376 31.0377V30.2377C24.8376 29.5752 25.8376 29.5752 25.8376 30.2377V31.0377C27.2251 31.1752 28.7501 32.0252 28.7501 33.4377C28.7501 34.1002 27.7501 34.1002 27.7501 33.4377C27.7501 32.6377 26.6501 32.1502 25.8376 32.0502V34.9377C27.3626 35.1877 28.7501 35.5502 28.7501 37.2877C28.7501 37.9127 28.4251 38.4627 27.9376 38.8752C29.9876 39.9377 30.1126 42.4752 28.5501 44.2877C32.2626 42.9502 34.8126 39.4252 34.8126 35.3752C34.8126 30.1502 30.5751 25.9002 25.3376 25.9002C20.1126 25.9002 15.8626 30.1377 15.8626 35.3752C15.8751 37.7877 16.7751 40.0627 18.3876 41.8002ZM10.3751 46.8502C12.1501 45.2127 13.8876 43.7627 15.9626 43.1377C16.5001 42.9752 17.0251 42.7002 17.5626 42.3627C13.8501 38.2252 14.0001 31.9002 17.9501 27.9502C22.0376 23.8627 28.6751 23.8627 32.7626 27.9502C36.7001 31.8877 36.8751 38.2002 33.1626 42.3377C31.4651 44.2404 29.1317 45.4583 26.6001 45.7627L23.7876 47.2627L25.3626 47.3627C26.0251 47.3627 26.0251 48.3752 25.3626 48.3752C24.8251 48.3752 24.3126 48.3377 23.7876 48.2752C23.3251 48.2127 22.8751 48.1377 22.4376 48.0377C22.0876 48.2377 21.7501 48.4377 21.4501 48.6252C20.6001 49.1627 19.9876 49.5752 19.7376 49.8002C20.3626 49.9002 22.7001 50.1627 25.5126 50.4502C27.9251 50.7002 30.6376 50.9127 32.9376 51.0127C35.5501 50.2627 37.8876 49.1002 39.6376 47.5377C41.0001 46.3127 42.0126 44.8377 42.5251 43.1002C44.2001 37.4252 39.9751 31.0377 35.8501 26.4377C34.0751 24.4627 32.2626 22.6377 30.4501 20.5002C30.3001 20.4877 30.1251 20.4627 29.9626 20.4252C26.8126 19.6877 23.9501 19.6752 20.7501 20.4252C20.5751 20.4627 20.4126 20.4877 20.2626 20.5002C18.4501 22.6377 16.6376 24.4627 14.8626 26.4377C10.7751 31.0002 8.67506 34.9377 8.03756 38.2627C7.33756 41.8127 8.33756 44.6877 10.3751 46.8502ZM7.56256 46.8877L2.41256 46.8502C2.02506 46.8502 1.68756 47.1252 1.67506 47.5252L1.42506 62.0752C1.42506 62.4627 1.73756 62.8252 2.12506 62.8377L7.28756 62.8752C7.70006 62.8752 8.02506 62.5877 8.02506 62.2002L8.27506 47.6502C8.26256 47.2752 7.96256 46.9002 7.56256 46.8877ZM9.11256 46.9252C9.26256 47.2627 9.27506 47.4877 9.26256 47.8377L9.62506 47.5127C9.45006 47.3252 9.27506 47.1252 9.11256 46.9252ZM2.41256 45.8502C4.13756 45.8627 5.86256 45.8627 7.58756 45.8877C7.97506 45.9002 8.33756 46.0377 8.62506 46.2752C7.07506 44.0627 6.41256 41.3252 7.03756 38.0627C7.71256 34.5627 9.88756 30.4627 14.1126 25.7502C15.8001 23.8627 17.4376 22.2127 19.1126 20.2752C17.4876 19.5002 17.2876 16.8502 18.6251 15.7002L14.6501 10.6252C13.8376 9.27521 14.3251 8.12521 15.6126 7.32521C16.6626 6.66271 18.3126 6.20021 20.2126 5.91271C20.5501 5.37521 21.1501 4.96271 21.9001 4.66271C23.6126 3.98771 26.2001 3.98771 27.9001 4.66271C28.6001 4.93771 29.1626 5.31271 29.5126 5.78771C30.1001 5.85021 30.6751 5.93771 31.2126 6.03771H54.8376C55.9126 4.27521 57.0001 2.40021 58.1126 0.38771C58.2376 0.15021 58.5501 0.0627097 58.7876 0.18771L63.0376 2.53771C63.2751 2.66271 63.3626 2.97521 63.2376 3.21271C61.2001 6.90021 59.5751 10.2127 58.0376 13.4127V42.2752C58.0376 42.5502 57.8126 42.7752 57.5376 42.7752H43.6251L43.3251 43.8002C44.8501 43.1752 46.8251 43.0877 47.9126 44.0752C48.4251 44.5377 48.6376 45.1752 48.4876 45.8377C50.2501 45.0252 51.9876 45.0627 53.1251 45.5752C53.9626 45.9627 54.6126 46.6627 54.5376 47.6002C54.4876 48.3252 53.9876 49.1127 52.8876 49.8377C52.0376 50.4002 50.8626 51.2127 49.5126 52.1377C43.9376 55.9627 35.2501 61.9127 32.0876 62.7877C32.0626 62.8002 32.0251 62.8002 32.0001 62.8002C26.6501 63.2877 13.9126 62.4627 8.80006 62.9627C8.50006 63.5252 7.91256 63.8627 7.25006 63.8502C5.52506 63.8377 3.80006 63.8377 2.07506 63.8127C1.12506 63.8002 0.387559 62.9627 0.400059 62.0502C0.487559 57.2002 0.562559 52.3502 0.650059 47.5002C0.687559 46.5627 1.46256 45.8502 2.41256 45.8502Z" fill="black"/>
</g>
<defs>
<clipPath id="clip0_3621_7044">
<rect width="64" height="64" fill="white"/>
</clipPath>
</defs>
</svg>
