<svg width="64" height="56" viewBox="0 0 64 56" fill="none" xmlns="http://www.w3.org/2000/svg">
<path d="M54.9135 17.7848H42.896V1.89259C42.896 0.991844 43.6262 0.261719 44.5269 0.261719H53.2825C54.1832 0.261719 54.9134 0.991969 54.9134 1.89259V17.7848H54.9135Z" fill="url(#paint0_linear_3620_6283)"/>
<path d="M54.9135 17.7848H42.896V1.89259C42.896 0.991844 43.6262 0.261719 44.5269 0.261719H53.2825C54.1832 0.261719 54.9134 0.991969 54.9134 1.89259V17.7848H54.9135Z" fill="url(#paint1_linear_3620_6283)"/>
<path d="M54.9134 1.89222V17.784H47.5107V0.261719H53.2829C54.1825 0.261719 54.9134 0.991219 54.9134 1.89222Z" fill="url(#paint2_linear_3620_6283)"/>
<path d="M55.2595 21.6219V52.6761C55.2595 54.3669 53.8888 55.7375 52.1981 55.7375H11.8021C10.1113 55.7375 8.74072 54.3669 8.74072 52.6761V21.6219L25.4977 9.21875H38.5025L55.2595 21.6219Z" fill="url(#paint3_linear_3620_6283)"/>
<path d="M8.74072 35.2695V52.6765C8.74072 54.3673 10.1113 55.7379 11.8021 55.7379H52.1981C53.8888 55.7379 55.2595 54.3673 55.2595 52.6765V35.2695H8.74072Z" fill="url(#paint4_linear_3620_6283)"/>
<path d="M55.26 21.6221V35.269H8.74023V21.6221L25.4984 9.21875H38.5019L55.26 21.6221Z" fill="url(#paint5_linear_3620_6283)"/>
<path d="M8.74023 21.6221V35.269H55.26V21.6221L38.5019 9.21875H25.4984L8.74023 21.6221Z" fill="url(#paint6_linear_3620_6283)"/>
<path d="M32 9.21875V55.7375H52.198C53.8888 55.7375 55.2594 54.3669 55.2594 52.6761V21.6219L38.5024 9.21875H32Z" fill="url(#paint7_linear_3620_6283)"/>
<path d="M33.2759 10.2238L57.3117 28.0145C59.2767 29.469 62.0642 28.9408 63.361 26.8685C64.5223 25.0127 64.0607 22.576 62.3012 21.2735L35.4517 1.40022C33.4009 -0.117781 30.5992 -0.117781 28.5483 1.40022L1.69891 21.2735C-0.0607159 22.5758 -0.522341 25.0127 0.639034 26.8685C1.93591 28.9408 4.72341 29.469 6.68841 28.0145L30.7242 10.2238C31.0934 9.95053 31.5406 9.80301 32 9.80301C32.4594 9.80301 32.9067 9.95053 33.2759 10.2238Z" fill="url(#paint8_linear_3620_6283)"/>
<path d="M33.2759 10.2238L57.3117 28.0145C59.2767 29.469 62.0642 28.9408 63.361 26.8685C64.5223 25.0127 64.0607 22.576 62.3012 21.2735L35.4517 1.40022C33.4009 -0.117781 30.5992 -0.117781 28.5483 1.40022L1.69891 21.2735C-0.0607159 22.5758 -0.522341 25.0127 0.639034 26.8685C1.93591 28.9408 4.72341 29.469 6.68841 28.0145L30.7242 10.2238C31.0934 9.95053 31.5406 9.80301 32 9.80301C32.4594 9.80301 32.9067 9.95053 33.2759 10.2238Z" fill="url(#paint9_linear_3620_6283)"/>
<path d="M63.3443 26.8932L35.4516 6.24778C33.4009 4.72991 30.5991 4.72991 28.5483 6.24778L0.655762 26.8932C1.95951 28.9442 4.73164 29.4623 6.68839 28.0139L30.7241 10.2233C31.0934 9.94997 31.5406 9.80245 32 9.80245C32.4594 9.80245 32.9066 9.94997 33.2759 10.2233L57.3116 28.0139C59.2685 29.4623 62.0405 28.944 63.3443 26.8932Z" fill="url(#paint10_linear_3620_6283)"/>
<path d="M42.8955 17.3438L57.3114 28.014C59.2764 29.4685 62.0639 28.9404 63.3608 26.868C64.522 25.0123 64.0604 22.5755 62.3009 21.273L48.8914 11.3477L42.8955 17.3438Z" fill="url(#paint11_linear_3620_6283)"/>
<path d="M21.1043 17.3437L6.68832 28.014C4.72332 29.4685 1.93582 28.9404 0.638947 26.868C-0.522303 25.0123 -0.0606785 22.5755 1.69882 21.273L15.1082 11.3477L21.1043 17.3437Z" fill="url(#paint12_linear_3620_6283)"/>
<path d="M29.036 33.8116H22.5061C21.732 33.8116 21.1045 33.1841 21.1045 32.41V25.8801C21.1045 25.106 21.732 24.4785 22.5061 24.4785H29.036C29.8101 24.4785 30.4376 25.106 30.4376 25.8801V32.41C30.4376 33.184 29.8101 33.8116 29.036 33.8116Z" fill="url(#paint13_linear_3620_6283)"/>
<path d="M29.036 33.8116H22.5061C21.732 33.8116 21.1045 33.1841 21.1045 32.41V25.8801C21.1045 25.106 21.732 24.4785 22.5061 24.4785H29.036C29.8101 24.4785 30.4376 25.106 30.4376 25.8801V32.41C30.4376 33.184 29.8101 33.8116 29.036 33.8116Z" fill="url(#paint14_linear_3620_6283)"/>
<path d="M29.036 33.8116H22.5061C21.732 33.8116 21.1045 33.1841 21.1045 32.41V25.8801C21.1045 25.106 21.732 24.4785 22.5061 24.4785H29.036C29.8101 24.4785 30.4376 25.106 30.4376 25.8801V32.41C30.4376 33.184 29.8101 33.8116 29.036 33.8116Z" fill="url(#paint15_linear_3620_6283)"/>
<path d="M41.494 33.8116H34.9641C34.19 33.8116 33.5625 33.1841 33.5625 32.41V25.8801C33.5625 25.106 34.19 24.4785 34.9641 24.4785H41.494C42.2681 24.4785 42.8956 25.106 42.8956 25.8801V32.41C42.8956 33.184 42.2681 33.8116 41.494 33.8116Z" fill="url(#paint16_linear_3620_6283)"/>
<path d="M41.494 33.8116H34.9641C34.19 33.8116 33.5625 33.1841 33.5625 32.41V25.8801C33.5625 25.106 34.19 24.4785 34.9641 24.4785H41.494C42.2681 24.4785 42.8956 25.106 42.8956 25.8801V32.41C42.8956 33.184 42.2681 33.8116 41.494 33.8116Z" fill="url(#paint17_linear_3620_6283)"/>
<path d="M41.494 33.8116H34.9641C34.19 33.8116 33.5625 33.1841 33.5625 32.41V25.8801C33.5625 25.106 34.19 24.4785 34.9641 24.4785H41.494C42.2681 24.4785 42.8956 25.106 42.8956 25.8801V32.41C42.8956 33.184 42.2681 33.8116 41.494 33.8116Z" fill="url(#paint18_linear_3620_6283)"/>
<path d="M29.036 46.0577H22.5061C21.732 46.0577 21.1045 45.4302 21.1045 44.6561V38.1262C21.1045 37.3521 21.732 36.7246 22.5061 36.7246H29.036C29.8101 36.7246 30.4376 37.3521 30.4376 38.1262V44.6561C30.4376 45.4302 29.8101 46.0577 29.036 46.0577Z" fill="url(#paint19_linear_3620_6283)"/>
<path d="M29.036 46.0577H22.5061C21.732 46.0577 21.1045 45.4302 21.1045 44.6561V38.1262C21.1045 37.3521 21.732 36.7246 22.5061 36.7246H29.036C29.8101 36.7246 30.4376 37.3521 30.4376 38.1262V44.6561C30.4376 45.4302 29.8101 46.0577 29.036 46.0577Z" fill="url(#paint20_linear_3620_6283)"/>
<path d="M29.036 46.0577H22.5061C21.732 46.0577 21.1045 45.4302 21.1045 44.6561V38.1262C21.1045 37.3521 21.732 36.7246 22.5061 36.7246H29.036C29.8101 36.7246 30.4376 37.3521 30.4376 38.1262V44.6561C30.4376 45.4302 29.8101 46.0577 29.036 46.0577Z" fill="url(#paint21_linear_3620_6283)"/>
<path d="M41.494 46.0577H34.9641C34.19 46.0577 33.5625 45.4302 33.5625 44.6561V38.1262C33.5625 37.3521 34.19 36.7246 34.9641 36.7246H41.494C42.2681 36.7246 42.8956 37.3521 42.8956 38.1262V44.6561C42.8956 45.4302 42.2681 46.0577 41.494 46.0577Z" fill="url(#paint22_linear_3620_6283)"/>
<path d="M41.494 46.0577H34.9641C34.19 46.0577 33.5625 45.4302 33.5625 44.6561V38.1262C33.5625 37.3521 34.19 36.7246 34.9641 36.7246H41.494C42.2681 36.7246 42.8956 37.3521 42.8956 38.1262V44.6561C42.8956 45.4302 42.2681 46.0577 41.494 46.0577Z" fill="url(#paint23_linear_3620_6283)"/>
<path d="M41.494 46.0577H34.9641C34.19 46.0577 33.5625 45.4302 33.5625 44.6561V38.1262C33.5625 37.3521 34.19 36.7246 34.9641 36.7246H41.494C42.2681 36.7246 42.8956 37.3521 42.8956 38.1262V44.6561C42.8956 45.4302 42.2681 46.0577 41.494 46.0577Z" fill="url(#paint24_linear_3620_6283)"/>
<defs>
<linearGradient id="paint0_linear_3620_6283" x1="44.2419" y1="9.02322" x2="54.9907" y2="9.02322" gradientUnits="userSpaceOnUse">
<stop stop-color="#FFA1AE"/>
<stop offset="1" stop-color="#FF4565"/>
</linearGradient>
<linearGradient id="paint1_linear_3620_6283" x1="51.4866" y1="5.79059" x2="47.8999" y2="11.0652" gradientUnits="userSpaceOnUse">
<stop stop-color="#FE0364" stop-opacity="0"/>
<stop offset="0.234" stop-color="#F90362" stop-opacity="0.234"/>
<stop offset="0.517" stop-color="#EA035B" stop-opacity="0.517"/>
<stop offset="0.824" stop-color="#D20250" stop-opacity="0.824"/>
<stop offset="1" stop-color="#C00148"/>
</linearGradient>
<linearGradient id="paint2_linear_3620_6283" x1="51.0676" y1="9.02284" x2="55.0316" y2="9.02284" gradientUnits="userSpaceOnUse">
<stop stop-color="#FE0364" stop-opacity="0"/>
<stop offset="0.234" stop-color="#F90362" stop-opacity="0.234"/>
<stop offset="0.517" stop-color="#EA035B" stop-opacity="0.517"/>
<stop offset="0.824" stop-color="#D20250" stop-opacity="0.824"/>
<stop offset="1" stop-color="#C00148"/>
</linearGradient>
<linearGradient id="paint3_linear_3620_6283" x1="13.7681" y1="19.5511" x2="41.6042" y2="47.3873" gradientUnits="userSpaceOnUse">
<stop stop-color="#F5FBFF"/>
<stop offset="1" stop-color="#DBD5EF"/>
</linearGradient>
<linearGradient id="paint4_linear_3620_6283" x1="32.0001" y1="44.624" x2="32.0001" y2="56.4572" gradientUnits="userSpaceOnUse">
<stop stop-color="#DBD5EF" stop-opacity="0"/>
<stop offset="0.285" stop-color="#D9D2EE" stop-opacity="0.285"/>
<stop offset="0.474" stop-color="#D4C9E9" stop-opacity="0.474"/>
<stop offset="0.635" stop-color="#CBBAE2" stop-opacity="0.635"/>
<stop offset="0.779" stop-color="#BFA5D7" stop-opacity="0.78"/>
<stop offset="0.913" stop-color="#AF8ACA" stop-opacity="0.913"/>
<stop offset="1" stop-color="#A274BF"/>
</linearGradient>
<linearGradient id="paint5_linear_3620_6283" x1="28.929" y1="23.9156" x2="23.1606" y2="15.4072" gradientUnits="userSpaceOnUse">
<stop stop-color="#DBD5EF" stop-opacity="0"/>
<stop offset="0.285" stop-color="#D9D2EE" stop-opacity="0.285"/>
<stop offset="0.474" stop-color="#D4C9E9" stop-opacity="0.474"/>
<stop offset="0.635" stop-color="#CBBAE2" stop-opacity="0.635"/>
<stop offset="0.779" stop-color="#BFA5D7" stop-opacity="0.78"/>
<stop offset="0.913" stop-color="#AF8ACA" stop-opacity="0.913"/>
<stop offset="1" stop-color="#A274BF"/>
</linearGradient>
<linearGradient id="paint6_linear_3620_6283" x1="35.0712" y1="23.9156" x2="40.8396" y2="15.4073" gradientUnits="userSpaceOnUse">
<stop stop-color="#DBD5EF" stop-opacity="0"/>
<stop offset="0.285" stop-color="#D9D2EE" stop-opacity="0.285"/>
<stop offset="0.474" stop-color="#D4C9E9" stop-opacity="0.474"/>
<stop offset="0.635" stop-color="#CBBAE2" stop-opacity="0.635"/>
<stop offset="0.779" stop-color="#BFA5D7" stop-opacity="0.78"/>
<stop offset="0.913" stop-color="#AF8ACA" stop-opacity="0.913"/>
<stop offset="1" stop-color="#A274BF"/>
</linearGradient>
<linearGradient id="paint7_linear_3620_6283" x1="39.4843" y1="32.4781" x2="55.9426" y2="32.4781" gradientUnits="userSpaceOnUse">
<stop stop-color="#DBD5EF" stop-opacity="0"/>
<stop offset="0.285" stop-color="#D9D2EE" stop-opacity="0.285"/>
<stop offset="0.474" stop-color="#D4C9E9" stop-opacity="0.474"/>
<stop offset="0.635" stop-color="#CBBAE2" stop-opacity="0.635"/>
<stop offset="0.779" stop-color="#BFA5D7" stop-opacity="0.78"/>
<stop offset="0.913" stop-color="#AF8ACA" stop-opacity="0.913"/>
<stop offset="1" stop-color="#A274BF"/>
</linearGradient>
<linearGradient id="paint8_linear_3620_6283" x1="26.9909" y1="0.471218" x2="33.6245" y2="32.486" gradientUnits="userSpaceOnUse">
<stop stop-color="#B3DAFE"/>
<stop offset="1" stop-color="#0182FC"/>
</linearGradient>
<linearGradient id="paint9_linear_3620_6283" x1="26.9909" y1="0.471218" x2="33.6245" y2="32.486" gradientUnits="userSpaceOnUse">
<stop stop-color="#B3DAFE"/>
<stop offset="1" stop-color="#0182FC"/>
</linearGradient>
<linearGradient id="paint10_linear_3620_6283" x1="32" y1="19.8669" x2="32" y2="-0.137968" gradientUnits="userSpaceOnUse">
<stop stop-color="#314DC9" stop-opacity="0"/>
<stop offset="0.276" stop-color="#304BC4" stop-opacity="0.276"/>
<stop offset="0.563" stop-color="#2B45B8" stop-opacity="0.563"/>
<stop offset="0.854" stop-color="#243BA3" stop-opacity="0.854"/>
<stop offset="1" stop-color="#1F3596"/>
</linearGradient>
<linearGradient id="paint11_linear_3620_6283" x1="55.3981" y1="22.0755" x2="62.6669" y2="29.3442" gradientUnits="userSpaceOnUse">
<stop stop-color="#314DC9" stop-opacity="0"/>
<stop offset="0.276" stop-color="#304BC4" stop-opacity="0.276"/>
<stop offset="0.563" stop-color="#2B45B8" stop-opacity="0.563"/>
<stop offset="0.854" stop-color="#243BA3" stop-opacity="0.854"/>
<stop offset="1" stop-color="#1F3596"/>
</linearGradient>
<linearGradient id="paint12_linear_3620_6283" x1="8.6017" y1="22.0754" x2="1.33307" y2="29.344" gradientUnits="userSpaceOnUse">
<stop stop-color="#314DC9" stop-opacity="0"/>
<stop offset="0.276" stop-color="#304BC4" stop-opacity="0.276"/>
<stop offset="0.563" stop-color="#2B45B8" stop-opacity="0.563"/>
<stop offset="0.854" stop-color="#243BA3" stop-opacity="0.854"/>
<stop offset="1" stop-color="#1F3596"/>
</linearGradient>
<linearGradient id="paint13_linear_3620_6283" x1="23.155" y1="26.529" x2="30.2821" y2="33.6561" gradientUnits="userSpaceOnUse">
<stop stop-color="#B3DAFE"/>
<stop offset="1" stop-color="#0182FC"/>
</linearGradient>
<linearGradient id="paint14_linear_3620_6283" x1="25.771" y1="26.9761" x2="25.771" y2="23.6916" gradientUnits="userSpaceOnUse">
<stop stop-color="#314DC9" stop-opacity="0"/>
<stop offset="0.276" stop-color="#304BC4" stop-opacity="0.276"/>
<stop offset="0.563" stop-color="#2B45B8" stop-opacity="0.563"/>
<stop offset="0.854" stop-color="#243BA3" stop-opacity="0.854"/>
<stop offset="1" stop-color="#1F3596"/>
</linearGradient>
<linearGradient id="paint15_linear_3620_6283" x1="24.166" y1="29.145" x2="20.7685" y2="29.145" gradientUnits="userSpaceOnUse">
<stop stop-color="#314DC9" stop-opacity="0"/>
<stop offset="0.276" stop-color="#304BC4" stop-opacity="0.276"/>
<stop offset="0.563" stop-color="#2B45B8" stop-opacity="0.563"/>
<stop offset="0.854" stop-color="#243BA3" stop-opacity="0.854"/>
<stop offset="1" stop-color="#1F3596"/>
</linearGradient>
<linearGradient id="paint16_linear_3620_6283" x1="35.6131" y1="26.529" x2="42.7401" y2="33.6561" gradientUnits="userSpaceOnUse">
<stop stop-color="#B3DAFE"/>
<stop offset="1" stop-color="#0182FC"/>
</linearGradient>
<linearGradient id="paint17_linear_3620_6283" x1="38.2291" y1="26.9761" x2="38.2291" y2="23.6916" gradientUnits="userSpaceOnUse">
<stop stop-color="#314DC9" stop-opacity="0"/>
<stop offset="0.276" stop-color="#304BC4" stop-opacity="0.276"/>
<stop offset="0.563" stop-color="#2B45B8" stop-opacity="0.563"/>
<stop offset="0.854" stop-color="#243BA3" stop-opacity="0.854"/>
<stop offset="1" stop-color="#1F3596"/>
</linearGradient>
<linearGradient id="paint18_linear_3620_6283" x1="36.624" y1="29.145" x2="33.2265" y2="29.145" gradientUnits="userSpaceOnUse">
<stop stop-color="#314DC9" stop-opacity="0"/>
<stop offset="0.276" stop-color="#304BC4" stop-opacity="0.276"/>
<stop offset="0.563" stop-color="#2B45B8" stop-opacity="0.563"/>
<stop offset="0.854" stop-color="#243BA3" stop-opacity="0.854"/>
<stop offset="1" stop-color="#1F3596"/>
</linearGradient>
<linearGradient id="paint19_linear_3620_6283" x1="23.155" y1="38.7751" x2="30.2821" y2="45.9022" gradientUnits="userSpaceOnUse">
<stop stop-color="#B3DAFE"/>
<stop offset="1" stop-color="#0182FC"/>
</linearGradient>
<linearGradient id="paint20_linear_3620_6283" x1="25.771" y1="39.2224" x2="25.771" y2="35.9379" gradientUnits="userSpaceOnUse">
<stop stop-color="#314DC9" stop-opacity="0"/>
<stop offset="0.276" stop-color="#304BC4" stop-opacity="0.276"/>
<stop offset="0.563" stop-color="#2B45B8" stop-opacity="0.563"/>
<stop offset="0.854" stop-color="#243BA3" stop-opacity="0.854"/>
<stop offset="1" stop-color="#1F3596"/>
</linearGradient>
<linearGradient id="paint21_linear_3620_6283" x1="24.166" y1="41.3912" x2="20.7685" y2="41.3912" gradientUnits="userSpaceOnUse">
<stop stop-color="#314DC9" stop-opacity="0"/>
<stop offset="0.276" stop-color="#304BC4" stop-opacity="0.276"/>
<stop offset="0.563" stop-color="#2B45B8" stop-opacity="0.563"/>
<stop offset="0.854" stop-color="#243BA3" stop-opacity="0.854"/>
<stop offset="1" stop-color="#1F3596"/>
</linearGradient>
<linearGradient id="paint22_linear_3620_6283" x1="35.6131" y1="38.7751" x2="42.7401" y2="45.9022" gradientUnits="userSpaceOnUse">
<stop stop-color="#B3DAFE"/>
<stop offset="1" stop-color="#0182FC"/>
</linearGradient>
<linearGradient id="paint23_linear_3620_6283" x1="38.2291" y1="39.2224" x2="38.2291" y2="35.9379" gradientUnits="userSpaceOnUse">
<stop stop-color="#314DC9" stop-opacity="0"/>
<stop offset="0.276" stop-color="#304BC4" stop-opacity="0.276"/>
<stop offset="0.563" stop-color="#2B45B8" stop-opacity="0.563"/>
<stop offset="0.854" stop-color="#243BA3" stop-opacity="0.854"/>
<stop offset="1" stop-color="#1F3596"/>
</linearGradient>
<linearGradient id="paint24_linear_3620_6283" x1="36.624" y1="41.3912" x2="33.2265" y2="41.3912" gradientUnits="userSpaceOnUse">
<stop stop-color="#314DC9" stop-opacity="0"/>
<stop offset="0.276" stop-color="#304BC4" stop-opacity="0.276"/>
<stop offset="0.563" stop-color="#2B45B8" stop-opacity="0.563"/>
<stop offset="0.854" stop-color="#243BA3" stop-opacity="0.854"/>
<stop offset="1" stop-color="#1F3596"/>
</linearGradient>
</defs>
</svg>
