<svg width="64" height="64" viewBox="0 0 64 64" fill="none" xmlns="http://www.w3.org/2000/svg">
<g clip-path="url(#clip0_3621_6317)">
<path fill-rule="evenodd" clip-rule="evenodd" d="M32.8505 59.4296C33.62 60.0596 34.003 60.4022 34.3897 60.4169C34.7725 60.4021 35.1592 60.0595 35.9288 59.4296L56.22 38.6519C62.2217 32.2306 62.2217 21.7202 56.22 15.2954C50.767 9.45987 41.8125 10.7567 36.1312 16.3452L35.0634 17.3952C34.4448 18.0031 34.327 18.0031 33.6937 17.3805L32.6443 16.3452C26.974 10.753 18.0084 9.45987 12.5554 15.2954C6.55379 21.7202 6.55379 32.2306 12.5554 38.6519L14.9892 41.146L32.8505 59.4296Z" fill="#FD8087"/>
<path fill-rule="evenodd" clip-rule="evenodd" d="M38.6311 14.3007C41.5509 18.5374 43.2446 23.5696 43.2446 28.9667C43.2446 29.5561 43.2225 30.1382 43.182 30.713C42.858 35.5059 41.1937 39.9635 38.5354 43.7691C37.3645 45.4454 36.0021 46.9962 34.4705 48.3962C32.8357 49.892 31.0131 51.2109 29.0359 52.3197C28.3538 52.7022 27.6574 53.0585 26.9482 53.3881L32.8505 59.4299C33.62 60.0599 34.003 60.4025 34.3896 60.4171C34.7725 60.4024 35.1591 60.0597 35.9287 59.4299L42.1365 53.0712L56.2199 38.6519C60.9622 33.579 61.9564 25.9495 59.206 19.8046C58.4732 18.1726 57.4791 16.6437 56.2199 15.2954C55.3914 14.4112 54.482 13.6891 53.5172 13.1219C50.3729 11.2762 46.6282 11.0662 43.0936 12.1492C41.5435 12.6245 40.0302 13.354 38.6311 14.3007Z" fill="#FE636E"/>
<path d="M40.373 36.4017L40.3559 36.4016C40.1857 36.3985 40.0193 36.3506 39.8736 36.2625C39.7279 36.1745 39.6081 36.0496 39.5262 35.9003L34.534 26.7982L30.817 33.2961C30.7342 33.4408 30.6153 33.5616 30.472 33.6468C30.3286 33.7319 30.1657 33.7785 29.999 33.782C29.8323 33.7855 29.6675 33.7458 29.5208 33.6667C29.374 33.5877 29.2501 33.472 29.1614 33.3308L26.8525 29.6601L25.1101 32.5556C25.0243 32.6983 24.903 32.8164 24.758 32.8984C24.613 32.9804 24.4493 33.0235 24.2827 33.0235H18.248C17.7146 33.0235 17.2822 32.5908 17.2822 32.0572C17.2822 31.5236 17.7146 31.091 18.248 31.091H23.7369L26.0069 27.3186C26.0919 27.1773 26.2117 27.06 26.3549 26.9781C26.498 26.8962 26.6598 26.8524 26.8247 26.8507L26.8342 26.8506C26.9975 26.8506 27.1582 26.892 27.3011 26.971C27.4441 27.05 27.5647 27.164 27.6516 27.3022L29.9394 30.9393L33.7135 24.3417C33.798 24.194 33.92 24.0713 34.0671 23.9859C34.2143 23.9005 34.3814 23.8555 34.5516 23.8555L34.5604 23.8556C34.732 23.8572 34.9001 23.9044 35.0474 23.9926C35.1947 24.0807 35.3158 24.2065 35.3984 24.357L40.4072 33.4896L42.9342 29.2455C43.0198 29.1017 43.1413 28.9826 43.2867 28.8999C43.4322 28.8172 43.5967 28.7737 43.764 28.7737H51.8127C52.3461 28.7737 52.7785 29.2063 52.7785 29.74C52.7785 30.2736 52.3461 30.7062 51.8127 30.7062H44.3129L41.2026 35.93C41.117 36.0737 40.9956 36.1928 40.8501 36.2755C40.7047 36.3582 40.5403 36.4017 40.373 36.4017Z" fill="#F8F2F0"/>
<path fill-rule="evenodd" clip-rule="evenodd" d="M53.5175 21.4804C59.2909 21.4804 64.0001 16.7685 64.0001 10.9884C64.0001 5.21187 59.2909 0.5 53.5175 0.5C47.7405 0.5 43.0312 5.21187 43.0312 10.9884C43.0312 16.7685 47.7405 21.4804 53.5175 21.4804Z" fill="#F8F2F0"/>
<path fill-rule="evenodd" clip-rule="evenodd" d="M49.7584 1.19263C53.444 2.821 56.014 6.505 56.014 10.7931C56.014 10.8594 56.014 10.9257 56.0104 10.9884C55.9882 12.2077 55.76 13.3756 55.355 14.455C54.3094 17.2696 52.0854 19.5131 49.2871 20.5889C50.5795 21.1636 52.0117 21.4804 53.5177 21.4804C55.6127 21.4804 57.5679 20.8651 59.2064 19.8041C62.093 17.9326 64.0002 14.6834 64.0002 10.9884C64.0002 5.19712 59.3057 0.5 53.5176 0.5C52.1921 0.5 50.9256 0.743125 49.7584 1.19263Z" fill="#D6DCEA"/>
<path d="M57.3321 10.0216H54.4833V7.17133C54.4833 6.6377 54.0509 6.20508 53.5176 6.20508C52.9842 6.20508 52.5518 6.6377 52.5518 7.17133V10.0217H49.7031C49.1697 10.0217 48.7373 10.4543 48.7373 10.988C48.7373 11.5216 49.1697 11.9542 49.7031 11.9542H52.5518V14.8046C52.5518 15.3382 52.9842 15.7708 53.5176 15.7708C54.0509 15.7708 54.4833 15.3382 54.4833 14.8046V11.9541H57.3321C57.8654 11.9541 58.2978 11.5215 58.2978 10.9878C58.2978 10.4542 57.8656 10.0216 57.3321 10.0216Z" fill="#FD8087"/>
<path fill-rule="evenodd" clip-rule="evenodd" d="M8.94371 43.4819L6.79346 50.4594L8.94371 57.8532L18.8482 60.5498L26.8822 62.7344C31.5693 64.1933 33.6386 63.3607 37.9502 61.9755L53.7496 56.9064C58.2857 55.4513 57.6083 49.2105 50.9697 51.3435L42.1367 53.0713L40.6933 53.3549C38.5505 53.7712 38.2558 53.9443 36.0946 53.6092L29.0362 52.3198L27.7548 52.084C24.8608 51.1594 25.9875 47.2838 28.5133 47.6669C30.2217 47.8843 32.512 48.1937 34.4707 48.3963C34.5112 48.3999 34.5517 48.4037 34.5886 48.4073C38.37 48.7904 39.887 45.9648 38.5357 43.7692C38.024 42.9329 37.0923 42.185 35.7116 41.7467L30.3911 40.7704C26.9411 40.1368 24.4888 40.9252 19.1353 41.8057L16.1198 42.303L8.94371 43.4819Z" fill="#FED1A3"/>
<path fill-rule="evenodd" clip-rule="evenodd" d="M0 42.2326V59.2342C0 59.4478 0.224625 59.6211 0.497125 59.6211H8.44287C8.719 59.6211 8.94363 59.448 8.94363 59.2342V42.2326C8.94363 42.019 8.719 41.8457 8.44287 41.8457H0.497125C0.224625 41.8458 0 42.019 0 42.2326Z" fill="#99E6FC"/>
<path fill-rule="evenodd" clip-rule="evenodd" d="M0 56.6211V59.2331C0 59.4467 0.224625 59.62 0.497125 59.62H8.44287C8.719 59.62 8.94363 59.4468 8.94363 59.2331V56.6211C8.94363 56.8311 8.719 57.008 8.44287 57.008H0.497125C0.224625 57.008 0 56.8311 0 56.6211Z" fill="#62DBFB"/>
<path fill-rule="evenodd" clip-rule="evenodd" d="M8.94336 56.6227V57.8532L18.8479 60.5498L26.8819 62.7344C31.569 64.1933 33.6382 63.3607 37.9499 61.9756L53.7492 56.9064C56.3082 56.0886 57.2066 53.7456 56.3156 52.2388C55.8775 53.1082 55.0196 53.8892 53.7492 54.2944L37.9499 59.3636C33.6382 60.7451 31.569 61.5813 26.8819 60.1224L18.8479 57.9378L8.94336 55.2374V56.6227ZM28.513 45.0551C26.51 44.7529 25.387 47.1218 26.4474 48.5769C26.8707 47.9469 27.5999 47.5307 28.513 47.6669C30.2214 47.8843 32.5116 48.1937 34.4704 48.3963L34.5882 48.4073C38.1929 48.7721 39.7394 46.2264 38.7084 44.0859C38.4249 44.6312 37.9499 45.0991 37.2945 45.4122C36.5949 45.7474 35.6855 45.9058 34.5882 45.7953L34.4704 45.7843C32.5116 45.5818 30.2215 45.2723 28.513 45.0551Z" fill="#FFBC85"/>
</g>
<defs>
<clipPath id="clip0_3621_6317">
<rect width="64" height="64" fill="white"/>
</clipPath>
</defs>
</svg>
