<svg width="64" height="64" viewBox="0 0 64 64" fill="none" xmlns="http://www.w3.org/2000/svg">
<path d="M30 19H16C16 19 3 30 3 44C3 46.9174 4.15893 49.7153 6.22183 51.7782C8.28473 53.8411 11.0826 55 14 55H32C34.9174 55 37.7153 53.8411 39.7782 51.7782C41.8411 49.7153 43 46.9174 43 44C43 30 30 19 30 19Z" fill="#81C784"/>
<path d="M43 44C43.0008 45.4448 42.7168 46.8755 42.1643 48.2104C41.6117 49.5454 40.8015 50.7583 39.7799 51.7799C38.7583 52.8015 37.5454 53.6118 36.2104 54.1643C34.8755 54.7168 33.4447 55.0008 32 55H14C11.9834 55.001 10.0053 54.4474 8.2822 53.3997C6.55907 52.3521 5.15722 50.8508 4.22998 49.06C6.36417 50.9723 9.13447 52.0205 12 52H27C33.08 52 38 47.49 38 41.92C38 35.5 34.75 29.77 31.5 25.64C29.5828 23.1955 27.4031 20.9689 25 19H30C32.4254 21.1715 34.6051 23.6028 36.5 26.25C39.75 30.75 43 37 43 44Z" fill="#66BB6A"/>
<path d="M31 3C29 3 29 4 27 4C25 4 25 3 23 3C21 3 21 4 19 4C17 4 17 3 15 3C14 3 13 4 13 7C13.1383 9.61525 14.2016 12.0962 16 14H30C31.7984 12.0962 32.8617 9.61525 33 7C33 4 32 3 31 3Z" fill="#81C784"/>
<path d="M33.0002 7C32.8619 9.61525 31.7986 12.0962 30.0002 14H16.0002C15.1722 13.1112 14.4873 12.0992 13.9702 11H22.4462C23.3635 11.0021 24.2635 10.7511 25.0474 10.2748C25.8313 9.79843 26.4686 9.11512 26.8892 8.3C27.5948 6.97484 27.9755 5.50108 28.0002 4V3.89C29.0802 3.64 29.4002 3 31.0002 3C32.0002 3 33.0002 4 33.0002 7Z" fill="#66BB6A"/>
<path d="M23 36C22.6044 36 22.2178 35.8827 21.8889 35.6629C21.56 35.4432 21.3036 35.1308 21.1522 34.7654C21.0009 34.3999 20.9613 33.9978 21.0384 33.6098C21.1156 33.2219 21.3061 32.8655 21.5858 32.5858C21.8655 32.3061 22.2219 32.1156 22.6098 32.0384C22.9978 31.9613 23.3999 32.0009 23.7654 32.1522C24.1308 32.3036 24.4432 32.56 24.6629 32.8889C24.8827 33.2178 25 33.6044 25 34C25 34.2652 25.1054 34.5196 25.2929 34.7071C25.4804 34.8946 25.7348 35 26 35C26.2652 35 26.5196 34.8946 26.7071 34.7071C26.8946 34.5196 27 34.2652 27 34C26.9974 33.1156 26.7014 32.2571 26.1585 31.5589C25.6156 30.8608 24.8565 30.3624 24 30.142V29C24 28.7348 23.8946 28.4804 23.7071 28.2929C23.5196 28.1054 23.2652 28 23 28C22.7348 28 22.4804 28.1054 22.2929 28.2929C22.1054 28.4804 22 28.7348 22 29V30.142C21.0584 30.3844 20.2376 30.962 19.6916 31.7666C19.1457 32.5712 18.9122 33.5474 19.035 34.512C19.1577 35.4765 19.6283 36.3631 20.3583 37.0053C21.0883 37.6475 22.0277 38.0012 23 38C23.3956 38 23.7822 38.1173 24.1111 38.3371C24.44 38.5568 24.6964 38.8692 24.8478 39.2346C24.9991 39.6001 25.0387 40.0022 24.9616 40.3902C24.8844 40.7781 24.6939 41.1345 24.4142 41.4142C24.1345 41.6939 23.7781 41.8844 23.3902 41.9616C23.0022 42.0387 22.6001 41.9991 22.2346 41.8478C21.8692 41.6964 21.5568 41.44 21.3371 41.1111C21.1173 40.7822 21 40.3956 21 40C21 39.7348 20.8946 39.4804 20.7071 39.2929C20.5196 39.1054 20.2652 39 20 39C19.7348 39 19.4804 39.1054 19.2929 39.2929C19.1054 39.4804 19 39.7348 19 40C19.0026 40.8844 19.2986 41.7429 19.8415 42.4411C20.3844 43.1392 21.1435 43.6376 22 43.858V45C22 45.2652 22.1054 45.5196 22.2929 45.7071C22.4804 45.8946 22.7348 46 23 46C23.2652 46 23.5196 45.8946 23.7071 45.7071C23.8946 45.5196 24 45.2652 24 45V43.858C24.9416 43.6156 25.7624 43.038 26.3084 42.2334C26.8543 41.4288 27.0878 40.4526 26.965 39.488C26.8423 38.5235 26.3717 37.6369 25.6417 36.9947C24.9117 36.3525 23.9723 35.9988 23 36Z" fill="#EEEEEE"/>
<path d="M30.5 14H15.5C14.1193 14 13 15.1193 13 16.5C13 17.8807 14.1193 19 15.5 19H30.5C31.8807 19 33 17.8807 33 16.5C33 15.1193 31.8807 14 30.5 14Z" fill="#FFB74D"/>
<path d="M33.0002 16.5C33.0013 16.8286 32.9373 17.1542 32.8121 17.458C32.6868 17.7617 32.5027 18.0378 32.2703 18.2701C32.038 18.5025 31.762 18.6866 31.4582 18.8119C31.1544 18.9371 30.8288 19.0011 30.5002 19H15.5002C14.8372 19 14.2013 18.7366 13.7324 18.2678C13.2636 17.7989 13.0002 17.163 13.0002 16.5C12.9982 16.349 13.0116 16.1982 13.0402 16.05C13.2741 16.346 13.5719 16.5852 13.9113 16.7497C14.2507 16.9142 14.623 16.9998 15.0002 17H25.5002C25.8288 17.0011 26.1544 16.9371 26.4582 16.8119C26.762 16.6866 27.038 16.5025 27.2703 16.2701C27.5027 16.0378 27.6868 15.7617 27.8121 15.458C27.9373 15.1542 28.0013 14.8286 28.0002 14.5C27.9989 14.3322 27.9822 14.1648 27.9502 14H30.5002C31.1632 14 31.7991 14.2634 32.268 14.7322C32.7368 15.2011 33.0002 15.837 33.0002 16.5Z" fill="#FFA726"/>
<path d="M46 61C54.2843 61 61 54.2843 61 46C61 37.7157 54.2843 31 46 31C37.7157 31 31 37.7157 31 46C31 54.2843 37.7157 61 46 61Z" fill="#FFB74D"/>
<path d="M61.0002 45.9991C61.0009 48.9008 60.1597 51.7403 58.5787 54.1734C56.9978 56.6066 54.7448 58.5287 52.0931 59.7069C49.4414 60.8851 46.5049 61.2687 43.6395 60.8111C40.7742 60.3536 38.1031 59.0745 35.9502 57.1291C39.2202 58.2984 42.7947 58.2968 46.0637 57.1246C49.3327 55.9524 52.0937 53.6822 53.8756 50.7014C55.6575 47.7205 56.3498 44.2138 55.8346 40.7794C55.3193 37.345 53.6284 34.1958 51.0502 31.8691C53.962 32.9129 56.4805 34.8303 58.2615 37.3594C60.0424 39.8885 60.9989 42.9059 61.0002 45.9991Z" fill="#FFA726"/>
<path d="M41.5 45C40.8078 45 40.1311 44.7947 39.5555 44.4101C38.9799 44.0256 38.5313 43.4789 38.2664 42.8394C38.0015 42.1999 37.9322 41.4961 38.0673 40.8172C38.2023 40.1383 38.5356 39.5146 39.0251 39.0251C39.5146 38.5356 40.1383 38.2023 40.8172 38.0673C41.4961 37.9322 42.1999 38.0015 42.8394 38.2664C43.4789 38.5313 44.0256 38.9799 44.4101 39.5555C44.7947 40.1311 45 40.8078 45 41.5C44.9989 42.4279 44.6299 43.3176 43.9737 43.9737C43.3176 44.6299 42.4279 44.9989 41.5 45ZM41.5 40C41.2033 40 40.9133 40.088 40.6666 40.2528C40.42 40.4176 40.2277 40.6519 40.1142 40.926C40.0007 41.2001 39.9709 41.5017 40.0288 41.7926C40.0867 42.0836 40.2296 42.3509 40.4393 42.5607C40.6491 42.7704 40.9164 42.9133 41.2074 42.9712C41.4983 43.0291 41.7999 42.9993 42.074 42.8858C42.3481 42.7723 42.5824 42.58 42.7472 42.3334C42.912 42.0867 43 41.7967 43 41.5C42.9995 41.1023 42.8413 40.7211 42.5601 40.4399C42.2789 40.1587 41.8977 40.0005 41.5 40ZM50.5 54C49.8078 54 49.1311 53.7947 48.5555 53.4101C47.9799 53.0256 47.5313 52.4789 47.2664 51.8394C47.0015 51.1999 46.9322 50.4961 47.0673 49.8172C47.2023 49.1383 47.5356 48.5146 48.0251 48.0251C48.5146 47.5356 49.1383 47.2023 49.8172 47.0673C50.4961 46.9322 51.1999 47.0015 51.8394 47.2664C52.4789 47.5313 53.0256 47.9799 53.4101 48.5555C53.7947 49.1311 54 49.8078 54 50.5C53.9989 51.4279 53.6299 52.3176 52.9737 52.9737C52.3176 53.6299 51.4279 53.9989 50.5 54ZM50.5 49C50.2033 49 49.9133 49.088 49.6666 49.2528C49.42 49.4176 49.2277 49.6519 49.1142 49.926C49.0007 50.2001 48.9709 50.5017 49.0288 50.7926C49.0867 51.0836 49.2296 51.3509 49.4393 51.5607C49.6491 51.7704 49.9164 51.9133 50.2074 51.9712C50.4983 52.0291 50.7999 51.9993 51.074 51.8858C51.3481 51.7723 51.5824 51.58 51.7472 51.3334C51.912 51.0867 52 50.7967 52 50.5C51.9995 50.1023 51.8413 49.7211 51.5601 49.4399C51.2789 49.1587 50.8977 49.0005 50.5 49Z" fill="#EEEEEE"/>
<path d="M54 50.5008C54 50.4888 53.997 50.4778 53.996 50.4648C53.2612 51.7398 52.3434 52.9002 51.272 53.9088C52.0454 53.7336 52.7364 53.301 53.232 52.6819C53.7275 52.0628 53.9983 51.2939 54 50.5008Z" fill="#E0E0E0"/>
<path d="M39.9998 52.9994C39.802 52.9994 39.6087 52.9407 39.4443 52.8308C39.2799 52.7209 39.1518 52.5648 39.0761 52.3821C39.0004 52.1994 38.9806 51.9984 39.0192 51.8044C39.0578 51.6104 39.153 51.4323 39.2928 51.2924L51.2928 39.2924C51.4814 39.1103 51.734 39.0095 51.9962 39.0118C52.2584 39.014 52.5092 39.1192 52.6946 39.3046C52.88 39.49 52.9852 39.7408 52.9875 40.003C52.9897 40.2652 52.8889 40.5178 52.7068 40.7064L40.7068 52.7064C40.614 52.7994 40.5038 52.8732 40.3825 52.9235C40.2612 52.9738 40.1311 52.9996 39.9998 52.9994Z" fill="#EEEEEE"/>
</svg>
