<svg width="64" height="64" viewBox="0 0 64 64" fill="none" xmlns="http://www.w3.org/2000/svg">
<g clip-path="url(#clip0_3621_4922)">
<path d="M44.7474 14.0105H35.2825C30.4239 8.69738 32.7998 3.16275 36.6591 4.81488C36.6591 4.81488 36.3269 0.049 39.9596 0.001375C39.9776 0 39.9956 0 40.015 0C43.7069 0 43.3709 4.81475 43.3709 4.81475C47.2314 3.16263 49.606 8.69725 44.7474 14.0105Z" fill="#F6F1F1"/>
<path d="M39.3389 14.0111H35.2825C30.4239 8.69795 32.7998 3.16333 36.6591 4.81545C36.6591 4.81545 36.3269 0.0495781 39.9596 0.00195312C37.4111 0.139703 38.6629 9.76795 39.3389 14.0111Z" fill="#EADFDA"/>
<path d="M60.016 36.4555C60.016 25.4093 51.0613 12.4414 40.0152 12.4414C28.969 12.4414 20.0142 25.4094 20.0142 36.4555C20.0142 47.5017 28.9689 52.4433 40.0152 52.4433C51.0614 52.4433 60.016 47.5018 60.016 36.4555Z" fill="#F6F1F1"/>
<path d="M40.0152 52.4433C28.969 52.4433 20.0142 47.501 20.0142 36.4549C20.0142 25.4088 28.969 12.4414 40.0152 12.4414C34.456 12.4414 29.9503 25.4088 29.9503 36.4549C29.9503 47.501 34.456 52.4433 40.0152 52.4433Z" fill="#EADFDA"/>
<path d="M62.2789 46.1031H62.2777L45.6666 59.4276C44.9903 59.9699 44.2124 60.3715 43.3787 60.6088C42.5449 60.8461 41.6721 60.9143 40.8116 60.8094L18.4236 58.0848L12.4584 60.2914C9.25386 56.9958 10.5707 47.0359 10.5707 47.0359L11.9914 46.0033C11.8681 44.105 12.7634 42.2201 14.425 41.1415C14.6105 41.0203 14.8034 40.9109 15.0026 40.8139L24.6027 36.1255L29.54 33.7141C29.8036 33.5851 30.0788 33.4813 30.362 33.4043C32.4257 32.8389 34.6661 33.7464 35.7224 35.6924C36.9209 37.9016 36.1655 40.6629 34.0096 41.9548L26.029 46.7376L39.4589 49.0769C41.0756 49.358 42.7388 49.0176 44.1151 48.1239L57.4717 39.4535C59.2634 38.2895 61.647 38.6938 62.9566 40.3833C63.286 40.8077 63.529 41.2926 63.6719 41.8105C64.0916 43.343 63.5951 45.0469 62.2789 46.1031Z" fill="#F1D0A5"/>
<path d="M40.7747 57.2306C31.5776 58.4253 25.2369 53.032 21.4009 47.958C19.4987 45.442 20.1401 41.8435 22.7955 40.1414C32.057 34.2048 34.4526 34.4229 35.7221 35.6924C34.6657 33.7464 32.4254 32.8389 30.3617 33.4043C30.0786 33.4814 29.8034 33.5851 29.5397 33.7141L24.6025 36.1255L16.8214 39.9256L16.8204 39.9271L15.0024 40.814C12.973 41.8048 11.8545 43.8953 11.9911 46.0034L7.84424 47.0479C7.84424 47.0479 9.25374 56.9959 12.4582 60.2915L18.4235 58.0849L40.8115 60.8095C41.672 60.9145 42.5448 60.8463 43.3785 60.609C44.2123 60.3717 44.9902 59.9701 45.6665 59.4278L62.2775 46.1034C56.5372 44.546 46.9694 56.2833 40.7747 57.2306Z" fill="#F1B986"/>
<path d="M30.4951 41.7007C30.0942 41.7011 29.6994 41.6024 29.3458 41.4134C28.9922 41.2244 28.6908 40.9509 28.4684 40.6172C27.4363 39.076 27.1316 37.5324 27.1191 37.4675C27.0705 37.216 27.1238 36.9555 27.2672 36.7433C27.4106 36.5311 27.6325 36.3846 27.8839 36.3359C28.1354 36.2873 28.3959 36.3406 28.6081 36.484C28.8203 36.6274 28.9669 36.8493 29.0155 37.1007C29.0198 37.1219 29.2709 38.3444 30.0733 39.5425C30.2176 39.7577 30.5131 39.8291 30.7471 39.7044L31.9443 39.0659C32.0562 39.0062 32.1787 38.9691 32.305 38.9568C32.4312 38.9445 32.5586 38.9571 32.68 38.9941C32.8013 39.031 32.9142 39.0915 33.0121 39.1721C33.1101 39.2526 33.1912 39.3517 33.2509 39.4636C33.3106 39.5755 33.3477 39.6981 33.36 39.8243C33.3723 39.9505 33.3597 40.078 33.3227 40.1993C33.2858 40.3206 33.2253 40.4335 33.1448 40.5315C33.0642 40.6294 32.9652 40.7106 32.8533 40.7702L31.6561 41.4087C31.299 41.6001 30.9003 41.7004 30.4951 41.7007Z" fill="#F1B986"/>
<path d="M11.4484 65.9345C14.5708 64.8325 15.301 58.8363 13.0793 52.5416C10.8577 46.2469 6.52548 42.0374 3.40309 43.1394C0.280706 44.2414 -0.44948 50.2376 1.77218 56.5323C3.99383 62.827 8.32604 67.0365 11.4484 65.9345Z" fill="#DF6B57"/>
<path d="M14.2789 61.1756C11.8232 62.7092 9.15891 63.6506 6.28466 64.0008C5.71493 62.6295 5.16458 61.2502 4.63379 59.8633C7.62779 59.4937 10.4079 58.5216 12.9744 56.9453C13.4292 58.3492 13.8641 59.7594 14.2789 61.1756Z" fill="#DA387D"/>
<path d="M9.01793 60.6938C8.45668 60.6938 7.94981 60.315 7.78681 59.7795C7.62806 59.2579 7.82531 58.6773 8.26818 58.359C8.68681 58.0581 9.25868 58.0426 9.69643 58.3125C10.1476 58.5906 10.3856 59.1374 10.2812 59.6573C10.1618 60.2515 9.62468 60.6938 9.01793 60.6938Z" fill="white"/>
<path d="M48.3414 29.7786C47.9504 29.6408 47.5613 29.4979 47.1741 29.3498V23.4375C48.2516 23.6257 48.8978 24.1818 48.9451 24.2238C49.1341 24.3968 49.384 24.4876 49.6399 24.4763C49.8958 24.4649 50.1367 24.3524 50.3096 24.1635C50.4826 23.9745 50.5734 23.7246 50.562 23.4687C50.5507 23.2128 50.4382 22.9719 50.2492 22.799C50.1832 22.7381 49.0404 21.7096 47.174 21.4857V20.1806C47.174 19.9245 47.0723 19.6788 46.8911 19.4977C46.71 19.3166 46.4644 19.2148 46.2083 19.2148C45.9521 19.2148 45.7065 19.3166 45.5254 19.4977C45.3442 19.6788 45.2425 19.9245 45.2425 20.1806V21.5625C45.0155 21.6065 44.7908 21.662 44.5694 21.7286C42.9709 22.2101 41.776 23.5803 41.451 25.3046C41.156 26.8702 41.6531 28.3765 42.7483 29.2355C43.3706 29.7236 44.1529 30.1703 45.2425 30.6473V37.9987C44.1848 37.9501 43.5221 37.7447 42.3773 36.996C42.2711 36.9265 42.1524 36.8787 42.0277 36.8552C41.9031 36.8316 41.7751 36.8329 41.6509 36.8588C41.5268 36.8848 41.409 36.9349 41.3042 37.0064C41.1995 37.0779 41.1098 37.1693 41.0404 37.2755C40.9709 37.3816 40.9231 37.5004 40.8996 37.625C40.876 37.7496 40.8773 37.8777 40.9033 38.0018C40.9292 38.1259 40.9794 38.2437 41.0508 38.3485C41.1223 38.4533 41.2137 38.5429 41.3199 38.6123C42.8435 39.6091 43.8653 39.8738 45.2424 39.9302V41.3875C45.2424 41.6436 45.3441 41.8892 45.5252 42.0704C45.7064 42.2515 45.952 42.3532 46.2081 42.3532C46.4643 42.3532 46.7099 42.2515 46.891 42.0704C47.0721 41.8892 47.1739 41.6436 47.1739 41.3875V39.8608C49.8006 39.4228 51.3338 37.292 51.6681 35.3033C52.0875 32.8098 50.7816 30.6412 48.3414 29.7786ZM43.9405 27.7157C43.4149 27.3035 43.1884 26.5167 43.3494 25.6625C43.4989 24.8686 44.0444 23.9042 45.1265 23.5782C45.1656 23.5665 45.2039 23.5566 45.2426 23.546V28.5146C44.705 28.2436 44.2801 27.9821 43.9405 27.7157ZM49.7634 34.9833C49.5603 36.1916 48.6786 37.4803 47.1741 37.8835V31.4117C47.3438 31.4736 47.517 31.5361 47.6975 31.5998C50.0051 32.4155 49.8623 34.3958 49.7634 34.9833Z" fill="#736E6E"/>
<path d="M16.7256 34.4863C25.3286 34.4863 32.3027 27.5122 32.3027 18.9092C32.3027 10.3061 25.3286 3.33203 16.7256 3.33203C8.12255 3.33203 1.14844 10.3061 1.14844 18.9092C1.14844 27.5122 8.12255 34.4863 16.7256 34.4863Z" fill="#DF6B57"/>
<path d="M9.8625 29.9229C12.3749 32.4353 15.5324 33.9096 18.8006 34.3463C14.1545 34.9683 9.28175 33.4938 5.71088 29.9229C-0.372375 23.8396 -0.372375 13.977 5.71088 7.89377C9.28175 4.32289 14.1545 2.84852 18.8006 3.47039C15.5324 3.90689 12.3749 5.38139 9.8625 7.89377C3.77925 13.977 3.77925 23.8396 9.8625 29.9229Z" fill="#DA387D"/>
<path d="M16.7256 35.451C12.3069 35.451 8.15249 33.7302 5.02799 30.6056C1.90349 27.4811 0.182617 23.3269 0.182617 18.9081C0.182617 14.4894 1.90349 10.335 5.02799 7.21048C8.15262 4.08598 12.3069 2.36523 16.7256 2.36523C21.1444 2.36523 25.2987 4.08598 28.4231 7.21048C31.5475 10.335 33.2684 14.4894 33.2684 18.9081C33.2684 23.3269 31.5476 27.4811 28.4231 30.6056C25.2986 33.7302 21.1444 35.451 16.7256 35.451ZM16.7256 4.29673C12.8229 4.29673 9.15362 5.81661 6.39387 8.57623C3.63412 11.336 2.11424 15.0052 2.11424 18.908C2.11424 22.8107 3.63412 26.48 6.39387 29.2397C9.15349 31.9995 12.8229 33.5192 16.7256 33.5192C20.6284 33.5192 24.2976 31.9994 27.0572 29.2397C29.817 26.48 31.3367 22.8109 31.3367 18.908C31.3367 15.0051 29.817 11.336 27.0572 8.57623C24.2976 5.81661 20.6284 4.29673 16.7256 4.29673Z" fill="#DA387D"/>
<path d="M13.297 28.1353C13.1378 28.1353 12.981 28.0959 12.8407 28.0207C12.7004 27.9454 12.5809 27.8367 12.4928 27.7041C12.4047 27.5715 12.3507 27.4191 12.3357 27.2606C12.3207 27.1021 12.3451 26.9424 12.4067 26.7956L19.4924 9.91195C19.5414 9.79499 19.6131 9.68885 19.7032 9.59957C19.7933 9.5103 19.9001 9.43964 20.0175 9.39164C20.1349 9.34363 20.2606 9.31923 20.3874 9.31981C20.5142 9.32039 20.6397 9.34594 20.7567 9.39502C20.8736 9.44409 20.9798 9.51572 21.0691 9.60581C21.1583 9.69591 21.229 9.80271 21.277 9.92011C21.325 10.0375 21.3494 10.1632 21.3488 10.2901C21.3482 10.4169 21.3227 10.5424 21.2736 10.6593L14.188 27.5428C14.1144 27.7184 13.9905 27.8683 13.832 27.9737C13.6735 28.0791 13.4874 28.1353 13.297 28.1353ZM11.941 17.741C9.68211 17.741 7.84424 15.6756 7.84424 13.1371C7.84424 10.5986 9.68199 8.5332 11.941 8.5332C14.1997 8.5332 16.0376 10.5986 16.0376 13.1371C16.0376 15.6756 14.1997 17.741 11.941 17.741ZM11.941 10.4647C10.7472 10.4647 9.77586 11.6636 9.77586 13.1371C9.77586 14.6106 10.7472 15.8095 11.941 15.8095C13.1347 15.8095 14.106 14.6106 14.106 13.1371C14.106 11.6636 13.1347 10.4647 11.941 10.4647ZM21.5104 29.2845C19.2516 29.2845 17.4137 27.2191 17.4137 24.6806C17.4137 22.142 19.2515 20.0766 21.5104 20.0766C23.7692 20.0766 25.607 22.142 25.607 24.6806C25.607 27.2192 23.7692 29.2845 21.5104 29.2845ZM21.5104 22.0082C20.3166 22.0082 19.3454 23.2071 19.3454 24.6806C19.3454 26.1541 20.3166 27.353 21.5104 27.353C22.7041 27.353 23.6754 26.1541 23.6754 24.6806C23.6754 23.207 22.7042 22.0082 21.5104 22.0082Z" fill="white"/>
</g>
<defs>
<clipPath id="clip0_3621_4922">
<rect width="64" height="64" fill="white"/>
</clipPath>
</defs>
</svg>
