<svg width="64" height="64" viewBox="0 0 64 64" fill="none" xmlns="http://www.w3.org/2000/svg">
<path d="M62.4747 11.8938L57.6 15.2005L55.4667 16.6511L50.1334 20.2671H13.8667L1.52537 11.8938C1.35956 11.7782 1.22977 11.6182 1.15093 11.4321C1.07209 11.246 1.04741 11.0414 1.07973 10.8419C1.11205 10.6424 1.20006 10.456 1.33363 10.3044C1.4672 10.1527 1.64089 10.0418 1.8347 9.98447L31.392 1.15247C31.7889 1.03511 32.2112 1.03511 32.608 1.15247L55.52 8.00047L57.6 8.61914L62.176 9.98447C62.3686 10.0438 62.5405 10.156 62.6724 10.3083C62.8042 10.4606 62.8906 10.6468 62.9218 10.8458C62.9529 11.0449 62.9275 11.2486 62.8485 11.4339C62.7694 11.6192 62.6399 11.7785 62.4747 11.8938Z" fill="#295474"/>
<path d="M13.8667 34.1336V20.2669C13.8667 17.3229 21.984 14.9336 32 14.9336C42.016 14.9336 50.1334 17.3229 50.1334 20.2669V34.1336H13.8667Z" fill="#346D94"/>
<path d="M50.1334 34.1341C50.1334 35.2968 48.8747 36.3634 46.7307 37.2381H17.2694C15.1254 36.3634 13.8667 35.2968 13.8667 34.1341C13.8667 31.1901 21.984 28.8008 32 28.8008C42.016 28.8008 50.1334 31.1901 50.1334 34.1341Z" fill="#295474"/>
<path d="M58.6666 25.5999C58.6671 26.0696 58.5125 26.5264 58.2269 26.8993C57.9413 27.2722 57.5406 27.5404 57.087 27.6623C56.6334 27.7842 56.1522 27.753 55.7181 27.5736C55.284 27.3941 54.9213 27.0764 54.6863 26.6697C54.4512 26.263 54.3569 25.7902 54.418 25.3244C54.4792 24.8587 54.6923 24.4262 55.0244 24.094C55.3564 23.7618 55.7888 23.5484 56.2545 23.487C56.7202 23.4257 57.1931 23.5197 57.5999 23.7546C57.9235 23.9421 58.1922 24.2112 58.3794 24.535C58.5665 24.8587 58.6655 25.2259 58.6666 25.5999Z" fill="#F7AD00"/>
<path d="M32.0003 62.9341C41.4259 62.9341 49.0669 55.2931 49.0669 45.8675C49.0669 36.4418 41.4259 28.8008 32.0003 28.8008C22.5746 28.8008 14.9336 36.4418 14.9336 45.8675C14.9336 55.2931 22.5746 62.9341 32.0003 62.9341Z" fill="#FFC306"/>
<path d="M33.0668 44.896V36.4181C33.98 36.6539 34.7893 37.1856 35.3683 37.9302C35.9473 38.6748 36.2632 39.5902 36.2668 40.5333C36.2668 40.8162 36.3791 41.0875 36.5792 41.2876C36.7792 41.4876 37.0505 41.6 37.3334 41.6C37.6163 41.6 37.8876 41.4876 38.0877 41.2876C38.2877 41.0875 38.4001 40.8162 38.4001 40.5333C38.3973 39.0223 37.8605 37.561 36.8846 36.4074C35.9087 35.2539 34.5564 34.4824 33.0668 34.2293V33.0667C33.0668 32.7838 32.9544 32.5125 32.7543 32.3124C32.5543 32.1124 32.283 32 32.0001 32C31.7172 32 31.4459 32.1124 31.2458 32.3124C31.0458 32.5125 30.9334 32.7838 30.9334 33.0667V34.2293C29.4428 34.48 28.0892 35.2509 27.113 36.405C26.1368 37.5591 25.6011 39.0217 25.6011 40.5333C25.6011 42.0449 26.1368 43.5076 27.113 44.6617C28.0892 45.8158 29.4428 46.5866 30.9334 46.8373V55.3152C30.0202 55.0794 29.2109 54.5477 28.6319 53.8031C28.0529 53.0586 27.737 52.1432 27.7334 51.2C27.7334 50.9171 27.6211 50.6458 27.421 50.4458C27.221 50.2457 26.9497 50.1333 26.6668 50.1333C26.3839 50.1333 26.1126 50.2457 25.9125 50.4458C25.7125 50.6458 25.6001 50.9171 25.6001 51.2C25.6029 52.711 26.1397 54.1724 27.1156 55.3259C28.0915 56.4794 29.4438 57.2509 30.9334 57.504V58.6667C30.9334 58.9496 31.0458 59.2209 31.2458 59.4209C31.4459 59.621 31.7172 59.7333 32.0001 59.7333C32.283 59.7333 32.5543 59.621 32.7543 59.4209C32.9544 59.2209 33.0668 58.9496 33.0668 58.6667V57.504C34.5574 57.2533 35.911 56.4825 36.8872 55.3284C37.8634 54.1743 38.3991 52.7116 38.3991 51.2C38.3991 49.6884 37.8634 48.2257 36.8872 47.0716C35.911 45.9175 34.5574 45.1467 33.0668 44.896ZM27.7334 40.5333C27.737 39.5902 28.0529 38.6748 28.6319 37.9302C29.2109 37.1856 30.0202 36.6539 30.9334 36.4181V44.6485C30.0202 44.4128 29.2109 43.881 28.6319 43.1365C28.0529 42.3919 27.737 41.4765 27.7334 40.5333ZM33.0668 55.3152V47.0848C33.9815 47.3176 34.7926 47.8486 35.3719 48.5938C35.9513 49.3391 36.2658 50.2561 36.2658 51.2C36.2658 52.1439 35.9513 53.0609 35.3719 53.8062C34.7926 54.5514 33.9815 55.0824 33.0668 55.3152Z" fill="#F49100"/>
<path d="M32.0003 62.9341C28.6248 62.9341 25.3251 61.9332 22.5185 60.0579C19.7119 58.1826 17.5245 55.5171 16.2327 52.3986C14.941 49.2801 14.603 45.8485 15.2615 42.5379C15.9201 39.2273 17.5455 36.1863 19.9323 33.7995C22.3191 31.4127 25.3601 29.7872 28.6707 29.1287C31.9813 28.4702 35.4129 28.8082 38.5314 30.0999C41.6499 31.3916 44.3154 33.5791 46.1907 36.3857C48.066 39.1923 49.0669 42.492 49.0669 45.8675C49.0616 50.3922 47.2618 54.73 44.0623 57.9295C40.8628 61.1289 36.525 62.9288 32.0003 62.9341ZM32.0003 30.9341C29.0467 30.9341 26.1595 31.8099 23.7038 33.4508C21.248 35.0917 19.3339 37.424 18.2037 40.1527C17.0734 42.8814 16.7777 45.884 17.3539 48.7808C17.9301 51.6776 19.3523 54.3385 21.4408 56.4269C23.5293 58.5154 26.1901 59.9376 29.0869 60.5138C31.9837 61.0901 34.9863 60.7943 37.715 59.6641C40.4437 58.5338 42.776 56.6197 44.4169 54.164C46.0578 51.7082 46.9336 48.821 46.9336 45.8675C46.9294 41.9082 45.3547 38.1123 42.5551 35.3127C39.7554 32.513 35.9595 30.9384 32.0003 30.9341Z" fill="#F49100"/>
<path d="M57.6002 8.61867V23.7547C57.2764 23.5661 56.9083 23.4667 56.5335 23.4667C56.1588 23.4667 55.7907 23.5661 55.4669 23.7547V8.29867C55.4628 8.19643 55.481 8.09453 55.5202 8L57.6002 8.61867Z" fill="#FFC306"/>
</svg>
